<?xml version="1.0" encoding="utf-8"?>
<!-- Generator: Adobe Illustrator 19.0.0, SVG Export Plug-In . SVG Version: 6.00 Build 0)  -->
<svg version="1.1" id="Layer_1" xmlns="http://www.w3.org/2000/svg" xmlns:xlink="http://www.w3.org/1999/xlink" x="0px" y="0px"
	 viewBox="235.8 247.5 66 66" style="enable-background:new 235.8 247.5 66 66;" xml:space="preserve">
<style type="text/css">
	.st0{fill:none;stroke:#4D4D4D;stroke-width:3;stroke-miterlimit:10;}
	.st1{fill:#4D4D4D;stroke:#4D4D4D;stroke-width:1.1;stroke-miterlimit:10;}
</style>
<circle class="st0" cx="268.8" cy="280.5" r="31.1"/>
<path class="st1" d="M259.5,294.9v-4.6c0-0.6-0.4-1.4-1-1.4h-3.4c-1.2,0-2-0.7-2-1.8v-15.4c0-1.1,0.8-1.9,2-1.9h23.4
	c1.2,0,2,0.7,2,1.9v15.4c0,1.1-0.7,1.8-2,1.8h-12.2c-0.1,0-0.2,0.2-0.3,0.3c-0.1,0.1-0.1,0.2-0.2,0.2L259.5,294.9z M255.1,270.9
	c-0.4,0-1,0.1-1,0.9v15.4c0,0.2,0,0.8,1,0.8h3.4c1.2,0,2,1.2,2,2.3v2.4l4.6-4c0,0,0.1-0.1,0.2-0.2c0.2-0.2,0.6-0.6,1.1-0.6h12.2
	c0.9,0,1-0.5,1-0.8v-15.4c0-0.6-0.3-0.9-1-0.9H255.1z M282.4,285.6h-0.9c-0.3,0-0.5-0.2-0.5-0.5s0.2-0.5,0.5-0.5h0.9
	c0.6,0,1-0.7,1-1.3v-15.4c0-0.6-0.3-0.9-1-0.9H259c-0.4,0-1,0.1-1,0.9v1.1c0,0.3-0.2,0.5-0.5,0.5c-0.3,0-0.5-0.2-0.5-0.5v-1.1
	c0-1.1,0.8-1.9,2-1.9h23.4c1.2,0,2,0.7,2,1.9v15.4C284.4,284.4,283.6,285.6,282.4,285.6z"/>
</svg>
