<?xml version="1.0" encoding="utf-8"?>
<!-- Generator: Adobe Illustrator 19.0.0, SVG Export Plug-In . SVG Version: 6.00 Build 0)  -->
<svg version="1.1" id="Layer_1" xmlns="http://www.w3.org/2000/svg" xmlns:xlink="http://www.w3.org/1999/xlink" x="0px" y="0px"
	 viewBox="-57.1 247.5 66 66" style="enable-background:new -57.1 247.5 66 66;" xml:space="preserve">
<style type="text/css">
	.st0{fill:#4D4D4D;stroke:#4D4D4D;stroke-miterlimit:10;}
	.st1{fill:none;stroke:#4D4D4D;stroke-width:3;stroke-miterlimit:10;}
</style>
<path class="st0" d="M-24.1,297.6l-0.5-0.7c-0.5-0.6-11.4-15.1-11.4-21.5c0-6.6,5.3-11.9,11.9-11.9s11.9,5.3,11.9,11.9
	c0,6.4-10.9,20.9-11.4,21.5L-24.1,297.6z M-24.1,264.8c-5.8,0-10.5,4.7-10.5,10.5c0,5.1,8.3,16.8,10.5,19.9
	c2.2-3.1,10.5-14.8,10.5-19.9C-13.6,269.5-18.3,264.8-24.1,264.8z M-24.1,280.5c-2.9,0-5.2-2.3-5.2-5.2c0-2.9,2.3-5.2,5.2-5.2
	s5.2,2.3,5.2,5.2C-18.9,278.2-21.3,280.5-24.1,280.5z M-24.1,271.5c-2.1,0-3.8,1.7-3.8,3.8c0,2.1,1.7,3.8,3.8,3.8s3.8-1.7,3.8-3.8
	C-20.3,273.3-22,271.5-24.1,271.5z"/>
<circle class="st1" cx="-24.1" cy="280.5" r="31.1"/>
</svg>
