<?xml version="1.0" encoding="utf-8"?>
<!-- Generator: Adobe Illustrator 19.0.0, SVG Export Plug-In . SVG Version: 6.00 Build 0)  -->
<svg version="1.1" id="Layer_1" xmlns="http://www.w3.org/2000/svg" xmlns:xlink="http://www.w3.org/1999/xlink" x="0px" y="0px"
	 viewBox="-219 50 583.5 669" style="enable-background:new -219 50 583.5 669;" xml:space="preserve">
<style type="text/css">
	.st0{fill:#FFFFFF;}
	.st1{fill:none;stroke:#FFFFFF;stroke-width:16.439;stroke-miterlimit:10;}
</style>
<path id="XMLID_246_" class="st0" d="M72.7,53.9c-134.5,0-243.5,109-243.5,243.5s109,243.5,243.5,243.5s243.5-109,243.5-243.5
	S207.2,53.9,72.7,53.9z M72.7,524.2c-125.3,0-226.8-101.6-226.8-226.8S-52.5,70.6,72.7,70.6c125.3,0,226.8,101.6,226.8,226.8
	S198,524.2,72.7,524.2z"/>
<g id="XMLID_136_">
	<path id="XMLID_140_" class="st1" d="M-35.1,411.9L-35.1,411.9c-21,0-38.1-17.2-38.1-38.1V221.1c0-21,17.2-38.1,38.1-38.1l0,0
		c21,0,38.1,17.2,38.1,38.1v152.7C3,394.7-14.2,411.9-35.1,411.9z"/>
	<path id="XMLID_139_" class="st1" d="M99.7,355.9L99.7,355.9c-14.8,14.8-39.1,14.8-53.9,0l-108-108c-14.8-14.8-14.8-39.1,0-53.9
		l0,0c14.8-14.8,39.1-14.8,53.9,0l108,108C114.6,316.8,114.6,341.1,99.7,355.9z"/>
	<path id="XMLID_138_" class="st1" d="M180.6,411.9L180.6,411.9c21,0,38.1-17.2,38.1-38.1V221.1c0-21-17.2-38.1-38.1-38.1l0,0
		c-21,0-38.1,17.2-38.1,38.1v152.7C142.5,394.7,159.6,411.9,180.6,411.9z"/>
	<path id="XMLID_137_" class="st1" d="M45.7,355.9L45.7,355.9c14.8,14.8,39.1,14.8,53.9,0l108-108c14.8-14.8,14.8-39.1,0-53.9l0,0
		c-14.8-14.8-39.1-14.8-53.9,0l-108,108C30.9,316.8,30.9,341.1,45.7,355.9z"/>
</g>
<g id="XMLID_113_">
	<path id="XMLID_132_" class="st0" d="M-153,596.8h27.7v92.1h-17.9v-62.3c0-1.8,0-4.3,0.1-7.5c0-3.2,0.1-5.7,0.1-7.5l-17.5,77.3
		h-18.7l-17.3-77.3c0,1.7,0,4.2,0.1,7.5c0,3.2,0.1,5.7,0.1,7.5v62.3h-18.1v-92.1h28l16.8,72.4L-153,596.8z"/>
	<path id="XMLID_129_" class="st0" d="M-83.2,647.5c3.3-0.4,5.7-0.9,7.1-1.6c2.6-1.1,3.8-2.8,3.8-5.1c0-2.8-1-4.7-2.9-5.8
		c-2-1.1-4.8-1.6-8.6-1.6c-4.3,0-7.3,1-9.1,3.1c-1.3,1.5-2.1,3.6-2.5,6.2h-17.2c0.4-6,2-10.9,5-14.7c4.7-6,12.8-9,24.3-9
		c7.5,0,14.1,1.5,20,4.4c5.8,3,8.7,8.5,8.7,16.7v31.2c0,2.2,0,4.8,0.1,7.9c0.1,2.3,0.5,3.9,1.1,4.7s1.5,1.5,2.6,2.1v2.6h-19.4
		c-0.5-1.4-0.9-2.7-1.1-3.9c-0.2-1.2-0.4-2.6-0.5-4.1c-2.5,2.7-5.3,4.9-8.5,6.8c-3.9,2.2-8.2,3.3-13.1,3.3c-6.2,0-11.3-1.8-15.4-5.3
		s-6.1-8.5-6.1-15c0-8.4,3.3-14.4,9.8-18.2c3.6-2,8.8-3.5,15.7-4.4L-83.2,647.5z M-72.3,655.8c-1.1,0.7-2.3,1.3-3.5,1.7
		s-2.8,0.8-4.8,1.2l-4.1,0.8c-3.8,0.7-6.5,1.5-8.2,2.4c-2.8,1.6-4.2,4.1-4.2,7.6c0,3,0.9,5.2,2.6,6.6s3.8,2,6.2,2
		c3.9,0,7.5-1.1,10.8-3.4c3.3-2.2,5-6.4,5.1-12.3L-72.3,655.8L-72.3,655.8z"/>
	<path id="XMLID_127_" class="st0" d="M-47.3,634.1v-12.7h9.5v-19h17.6v19h11.1v12.7h-11.1v36c0,2.8,0.4,4.5,1.1,5.2
		c0.7,0.7,2.9,1,6.5,1c0.5,0,1.1,0,1.7,0c0.6,0,1.2-0.1,1.8-0.1v13.3l-8.4,0.3c-8.4,0.3-14.2-1.2-17.2-4.4c-2-2-3-5.2-3-9.4v-41.9
		L-47.3,634.1L-47.3,634.1z"/>
	<path id="XMLID_125_" class="st0" d="M41.8,645.3c-0.3-2.5-1.2-4.8-2.6-6.9c-2-2.7-5.1-4.1-9.3-4.1c-6,0-10.1,3-12.3,8.9
		c-1.2,3.2-1.8,7.4-1.8,12.6c0,5,0.6,9,1.8,12c2.1,5.7,6.1,8.5,12,8.5c4.2,0,7.1-1.1,8.9-3.4s2.8-5.2,3.2-8.7h18.2
		c-0.4,5.4-2.4,10.5-5.9,15.4c-5.6,7.8-13.9,11.7-24.8,11.7s-19-3.2-24.2-9.7s-7.8-14.9-7.8-25.3c0-11.7,2.9-20.8,8.6-27.3
		c5.7-6.5,13.6-9.7,23.6-9.7c8.5,0,15.5,1.9,21,5.7c5.4,3.8,8.7,10.6,9.7,20.3H41.8z"/>
	<path id="XMLID_123_" class="st0" d="M119.8,621.2c3.4,1.5,6.2,3.7,8.4,6.7c1.9,2.5,3,5.2,3.4,7.8c0.4,2.7,0.6,7.1,0.6,13.2v40H114
		v-41.5c0-3.7-0.6-6.6-1.9-8.9c-1.6-3.2-4.7-4.8-9.2-4.8c-4.7,0-8.2,1.6-10.6,4.7c-2.4,3.1-3.6,7.6-3.6,13.5v36.9H71V597h17.8v32.5
		c2.6-4,5.5-6.7,8.9-8.3s6.9-2.3,10.7-2.3C112.6,619,116.4,619.7,119.8,621.2z"/>
	<path id="XMLID_120_" class="st0" d="M176,597.1h14l33.3,91.8h-13.6l-9.6-27.5h-36l-10,27.5h-12.7L176,597.1z M196.6,651.3
		l-14.1-40.5l-14.7,40.5H196.6z"/>
	<path id="XMLID_117_" class="st0" d="M230.9,622.3h11v8.9c2.3-3,4.7-5.4,7.4-7.1c3.8-2.5,8.3-3.7,13.4-3.7c7.6,0,14.1,2.9,19.4,8.7
		s8,14.1,8,24.9c0,14.6-3.8,25-11.5,31.2c-4.9,4-10.5,5.9-16.9,5.9c-5.1,0-9.3-1.1-12.7-3.3c-2-1.2-4.2-3.4-6.7-6.4v34.2h-11.2
		v-93.3H230.9z M273.2,674.8c3.5-4.4,5.2-11,5.2-19.7c0-5.3-0.8-9.9-2.3-13.7c-2.9-7.4-8.3-11.1-16-11.1c-7.8,0-13.2,3.9-16,11.7
		c-1.5,4.2-2.3,9.5-2.3,15.9c0,5.2,0.8,9.6,2.3,13.2c2.9,6.9,8.3,10.4,16,10.4C265.3,681.4,269.7,679.2,273.2,674.8z"/>
	<path id="XMLID_114_" class="st0" d="M300.7,622.3h11v8.9c2.3-3,4.7-5.4,7.4-7.1c3.8-2.5,8.3-3.7,13.4-3.7c7.6,0,14.1,2.9,19.4,8.7
		c5.3,5.8,8,14.1,8,24.9c0,14.6-3.8,25-11.5,31.2c-4.9,4-10.5,5.9-16.9,5.9c-5.1,0-9.3-1.1-12.7-3.3c-2-1.2-4.2-3.4-6.7-6.4v34.2
		h-11.2v-93.3H300.7z M343,674.8c3.5-4.4,5.2-11,5.2-19.7c0-5.3-0.8-9.9-2.3-13.7c-2.9-7.4-8.3-11.1-16-11.1
		c-7.8,0-13.2,3.9-16,11.7c-1.5,4.2-2.3,9.5-2.3,15.9c0,5.2,0.8,9.6,2.3,13.2c2.9,6.9,8.3,10.4,16,10.4
		C335.2,681.4,339.6,679.2,343,674.8z"/>
</g>
</svg>
