<?xml version="1.0" encoding="utf-8"?>
<!-- Generator: Adobe Illustrator 16.0.0, SVG Export Plug-In . SVG Version: 6.00 Build 0)  -->
<!DOCTYPE svg PUBLIC "-//W3C//DTD SVG 1.1//EN" "http://www.w3.org/Graphics/SVG/1.1/DTD/svg11.dtd">
<svg version="1.1" xmlns="http://www.w3.org/2000/svg" xmlns:xlink="http://www.w3.org/1999/xlink" x="0px" y="0px"
	 width="283.46px" height="226.77px" viewBox="0 0 283.46 226.77" enable-background="new 0 0 283.46 226.77" xml:space="preserve">
<g id="Camada_1">
</g>
<g id="Modo_de_isolamento">
	<g id="XMLID_238_">
		<path id="XMLID_180_" fill="#F1453D" d="M68.844,143.971L68.844,143.971c-12.357,0-22.456-10.098-22.456-22.455V31.592
			c0-12.357,10.099-22.456,22.456-22.456l0,0c12.357,0,22.456,10.099,22.456,22.456v89.923
			C91.3,133.873,81.202,143.971,68.844,143.971z"/>
		<path id="XMLID_179_" fill="#673FB4" d="M195.905,143.971L195.905,143.971c12.357,0,22.457-10.098,22.457-22.455V31.592
			c0-12.357-10.1-22.456-22.457-22.456l0,0c-12.357,0-22.455,10.099-22.455,22.456v89.923
			C173.45,133.873,183.548,143.971,195.905,143.971z"/>
		<path id="XMLID_135_" fill="#CDDA49" d="M116.48,111.051L116.48,111.051c8.736,8.737,23.021,8.737,31.757,0l63.58-63.614
			c8.736-8.736,8.736-23.021,0-31.757l0,0c-8.736-8.736-23.021-8.736-31.757,0L116.48,79.261
			C107.743,87.998,107.743,102.315,116.48,111.051z"/>
		<path id="XMLID_104_" fill="#2B98F0" d="M148.304,111.051L148.304,111.051c-8.736,8.737-23.021,8.737-31.757,0L52.932,47.438
			c-8.736-8.736-8.736-23.021,0-31.757l0,0c8.737-8.736,23.021-8.736,31.757,0l63.581,63.581
			C157.04,87.998,157.04,102.315,148.304,111.051z"/>
		<path id="XMLID_51_" fill="#292938" d="M75.654,10.266c-0.133-0.033-0.266-0.1-0.398-0.133C74.79,10,74.292,9.867,73.793,9.768
			c-0.232-0.066-0.498-0.133-0.764-0.166c-0.399-0.1-0.831-0.133-1.262-0.2c-0.299-0.033-0.631-0.1-0.93-0.133
			c-0.598-0.066-1.196-0.066-1.827-0.1c-0.133,0-0.266-0.033-0.399-0.033c-0.764,0-1.528,0.033-2.259,0.1c-0.033,0-0.066,0-0.1,0
			c-10.397,1.096-18.735,9.5-19.832,19.964c0,0.033,0,0.066,0,0.1c-0.066,0.731-0.1,1.495-0.1,2.259
			c0,5.747,2.226,11.494,6.577,15.878L91.3,85.971l-0.166-54.412C91.134,21.66,84.59,13.222,75.654,10.266z"/>
		<path id="XMLID_49_" fill="#523632" d="M212.116,47.438c4.451-4.352,6.445-10.099,6.445-15.878c0-0.764-0.133-1.528-0.232-2.259
			c0-0.033-0.066-0.066-0.066-0.1c-1.13-10.464-9.668-18.835-20.33-19.964c-0.033,0-0.066,0-0.1,0c-0.765-0.066-1.528-0.1-2.326-0.1
			c-0.133,0-0.266,0-0.398,0.033c-0.631,0-1.229,0.033-1.859,0.1c-0.333,0.033-0.632,0.1-0.964,0.133
			c-0.433,0.066-0.864,0.1-1.296,0.2c-0.266,0.033-0.498,0.133-0.764,0.166c-0.498,0.1-0.996,0.232-1.462,0.365
			c-0.133,0.033,0.166,0.1,0.033,0.133c-9.135,2.957-15.347,11.394-15.347,21.327v54.213L212.116,47.438z"/>
		<g enable-background="new    ">
			<path fill="#FFFFFF" d="M20.479,208.49v-39.217h10.316l9.965,28.9h0.162l10.074-28.9h10.262v39.217h-7.865v-26.773l-0.162-0.027
				l-9.696,26.801h-5.333l-9.696-26.854l-0.162,0.026v26.827H20.479z"/>
			<path fill="#FFFFFF" d="M66.071,200.258c0-2.85,1.1-5.059,3.3-6.627c2.199-1.568,5.409-2.352,9.629-2.352h4.417v-2.316
				c0-1.401-0.368-2.487-1.104-3.26c-0.737-0.771-1.832-1.158-3.286-1.158c-1.275,0-2.258,0.311-2.949,0.93
				c-0.691,0.619-1.037,1.468-1.037,2.545h-7.568l-0.054-0.162c0-0.125,0-0.25,0-0.377c-0.018-2.298,1.051-4.291,3.206-5.979
				c2.262-1.796,5.234-2.693,8.915-2.693c3.501,0,6.334,0.879,8.498,2.639c2.164,1.76,3.246,4.283,3.246,7.568v12.021
				c0,1.368,0.103,2.654,0.31,3.861c0.206,1.206,0.534,2.403,0.983,3.592h-7.838c-0.287-0.668-0.534-1.372-0.741-2.111
				c-0.207-0.74-0.354-1.499-0.444-2.275c-0.808,1.426-1.876,2.607-3.205,3.545c-1.329,0.938-2.909,1.406-4.741,1.406
				c-3.053,0-5.405-0.786-7.057-2.36C66.897,205.121,66.071,202.975,66.071,200.258z M73.936,199.99
				c0,0.984,0.319,1.767,0.957,2.348c0.637,0.582,1.521,0.873,2.653,0.873c1.364,0,2.586-0.34,3.663-1.02
				c1.078-0.681,1.813-1.468,2.208-2.362v-4.106H79c-1.67,0-2.932,0.412-3.784,1.234C74.363,197.781,73.936,198.791,73.936,199.99z"
				/>
			<path fill="#FFFFFF" d="M94.21,184.868v-5.521h4.229v-7.138h7.865v7.138h4.902v5.521h-4.902v14.863
				c0,1.133,0.238,1.942,0.714,2.428c0.476,0.485,1.1,0.728,1.872,0.728c0.413,0,0.772-0.021,1.078-0.066
				c0.305-0.045,0.655-0.121,1.05-0.229l0.646,5.659c-0.791,0.269-1.558,0.47-2.303,0.604c-0.746,0.135-1.558,0.201-2.438,0.201
				c-2.72,0-4.813-0.744-6.282-2.234c-1.469-1.49-2.203-3.852-2.203-7.084v-14.868H94.21z"/>
			<path fill="#FFFFFF" d="M114.376,194.35v-0.809c0-4.273,1.172-7.797,3.515-10.572c2.343-2.773,5.66-4.16,9.952-4.16
				c3.58,0,6.463,1.022,8.651,3.068c2.115,1.974,3.173,4.558,3.173,7.752c0,0.109,0,0.219,0,0.328l-0.054,0.164h-7.245
				c0-1.509-0.4-2.762-1.199-3.758s-1.908-1.495-3.326-1.495c-2.029,0-3.47,0.812-4.323,2.435s-1.279,3.697-1.279,6.226v0.808
				c0,2.581,0.426,4.67,1.279,6.266s2.312,2.394,4.377,2.394c1.365,0,2.451-0.405,3.259-1.218s1.212-1.896,1.212-3.254h7.245
				l0.054,0.154c0,0.086,0,0.172,0,0.256c0,2.808-1.099,5.183-3.296,7.126c-2.27,1.979-5.08,2.978-8.431,2.995
				c-4.323,0-7.665-1.377-10.025-4.134S114.376,198.641,114.376,194.35z"/>
			<path fill="#FFFFFF" d="M143.646,208.49v-42.018h7.865v16.526c0.916-1.316,2.037-2.345,3.366-3.083s2.802-1.107,4.417-1.107
				c3.035,0,5.418,1.01,7.151,3.029c1.733,2.021,2.6,5.141,2.6,9.359v17.293h-7.865v-17.386c0-2.268-0.363-3.874-1.091-4.819
				c-0.727-0.944-1.818-1.417-3.272-1.417c-1.203,0-2.249,0.194-3.138,0.581s-1.611,0.939-2.168,1.66v21.381H143.646z"/>
		</g>
		<g enable-background="new    ">
			<path fill="#FFFFFF" d="M174.521,208.49l14.41-39.217h3.044l14.302,39.217h-3.34l-3.905-10.936H181.82l-3.96,10.936H174.521z
				 M182.844,194.672h15.137l-7.434-20.793h-0.162L182.844,194.672z"/>
			<path fill="#FFFFFF" d="M211.252,219.694v-40.348h2.477l0.594,4.552c0.969-1.615,2.226-2.868,3.771-3.758
				c1.544-0.889,3.357-1.332,5.44-1.332c3.502,0,6.24,1.396,8.215,4.188c1.976,2.793,2.963,6.514,2.963,11.164v0.566
				c0,4.363-0.987,7.842-2.963,10.438c-1.975,2.594-4.695,3.891-8.16,3.891c-2.029,0-3.812-0.386-5.348-1.158
				c-1.535-0.771-2.787-1.867-3.757-3.285v15.083H211.252z M214.483,201.244c0.754,1.58,1.822,2.824,3.205,3.73
				c1.383,0.907,3.106,1.36,5.171,1.36c2.819,0,4.961-1.06,6.424-3.179c1.464-2.118,2.195-4.929,2.195-8.43v-0.566
				c0-3.698-0.736-6.715-2.208-9.049c-1.473-2.335-3.628-3.502-6.464-3.502c-2.138,0-3.884,0.512-5.239,1.535
				c-1.356,1.023-2.384,2.353-3.084,3.986V201.244z"/>
			<path fill="#FFFFFF" d="M241.626,219.694v-40.348h2.478l0.593,4.552c0.97-1.615,2.226-2.868,3.771-3.758
				c1.545-0.889,3.357-1.332,5.441-1.332c3.501,0,6.239,1.396,8.215,4.188c1.975,2.793,2.963,6.514,2.963,11.164v0.566
				c0,4.363-0.988,7.842-2.963,10.438c-1.976,2.594-4.695,3.891-8.161,3.891c-2.029,0-3.812-0.386-5.347-1.158
				c-1.535-0.771-2.787-1.867-3.758-3.285v15.083H241.626z M244.857,201.244c0.754,1.58,1.822,2.824,3.205,3.73
				c1.383,0.907,3.107,1.36,5.172,1.36c2.818,0,4.961-1.06,6.424-3.179c1.463-2.118,2.195-4.929,2.195-8.43v-0.566
				c0-3.698-0.736-6.715-2.209-9.049c-1.473-2.335-3.627-3.502-6.464-3.502c-2.138,0-3.884,0.512-5.239,1.535
				s-2.383,2.353-3.084,3.986V201.244z"/>
		</g>
		<path id="XMLID_77_" fill="#288147" d="M148.237,111.051l0.564-0.564c8.205-8.77,8.039-22.655-0.498-31.192l-15.912-15.912
			L116.48,79.261c-8.571,8.57-8.704,22.422-0.499,31.192l0.565,0.564c4.352,4.352,10.098,6.544,15.845,6.544
			C138.139,117.596,143.886,115.403,148.237,111.051z"/>
	</g>
</g>
</svg>
