<?xml version="1.0" encoding="utf-8"?>
<!-- Generator: Adobe Illustrator 16.0.0, SVG Export Plug-In . SVG Version: 6.00 Build 0)  -->
<!DOCTYPE svg PUBLIC "-//W3C//DTD SVG 1.1//EN" "http://www.w3.org/Graphics/SVG/1.1/DTD/svg11.dtd">
<svg version="1.1" id="Camada_1" xmlns="http://www.w3.org/2000/svg" xmlns:xlink="http://www.w3.org/1999/xlink" x="0px" y="0px"
	 width="1044.32px" height="1301.39px" viewBox="0 0 1044.32 1301.39" enable-background="new 0 0 1044.32 1301.39"
	 xml:space="preserve">
<g>
	<defs>
		<rect id="SVGID_1_" width="1044.32" height="1301.39"/>
	</defs>
	<clipPath id="SVGID_2_">
		<use xlink:href="#SVGID_1_"  overflow="visible"/>
	</clipPath>
	<polygon clip-path="url(#SVGID_2_)" fill="#20D59E" points="54.551,1099.742 91.035,1207.011 91.472,1207.011 125.99,1099.742 
		174.272,1099.742 174.272,1255.729 142.157,1255.729 142.157,1145.183 141.72,1145.183 103.489,1255.729 77.053,1255.729 
		38.822,1146.276 38.384,1146.276 38.384,1255.729 6.269,1255.729 6.269,1099.742 	"/>
	<g clip-path="url(#SVGID_2_)">
		<defs>
			<rect id="SVGID_3_" y="-0.002" width="1044.316" height="1301.392"/>
		</defs>
		<clipPath id="SVGID_4_">
			<use xlink:href="#SVGID_3_"  overflow="visible"/>
		</clipPath>
		<path clip-path="url(#SVGID_4_)" fill="#20D59E" d="M199.833,1177.518c0.437-7.282,2.256-13.328,5.462-18.134
			c3.202-4.807,7.281-8.664,12.234-11.579c4.95-2.911,10.521-4.987,16.713-6.227c6.189-1.235,12.415-1.856,18.679-1.856
			c5.68,0,11.432,0.402,17.259,1.201c5.824,0.803,11.142,2.369,15.948,4.697c4.807,2.331,8.739,5.571,11.798,9.722
			c3.058,4.151,4.587,9.65,4.587,16.494v58.769c0,5.1,0.29,9.978,0.874,14.638c0.581,4.663,1.602,8.158,3.059,10.486h-31.459
			c-0.584-1.748-1.059-3.529-1.421-5.353c-0.365-1.818-0.621-3.677-0.764-5.571c-4.954,5.101-10.78,8.667-17.478,10.705
			c-6.701,2.038-13.545,3.059-20.536,3.059c-5.39,0-10.415-0.655-15.074-1.966c-4.663-1.311-8.739-3.349-12.235-6.117
			c-3.495-2.765-6.226-6.26-8.192-10.486c-1.966-4.223-2.949-9.248-2.949-15.074c0-6.407,1.126-11.688,3.386-15.84
			c2.256-4.149,5.168-7.462,8.739-9.94c3.567-2.475,7.646-4.331,12.234-5.57c4.587-1.236,9.21-2.219,13.873-2.949
			c4.659-0.728,9.247-1.312,13.763-1.748c4.513-0.437,8.52-1.093,12.016-1.966c3.496-0.874,6.261-2.147,8.302-3.823
			c2.038-1.673,2.984-4.113,2.84-7.318c0-3.35-0.546-6.009-1.639-7.975c-1.092-1.967-2.549-3.496-4.369-4.588
			c-1.823-1.093-3.932-1.819-6.336-2.185c-2.403-0.362-4.99-0.546-7.755-0.546c-6.117,0-10.923,1.311-14.419,3.932
			c-3.496,2.622-5.537,6.991-6.117,13.109H199.833z M271.491,1200.457c-1.311,1.167-2.949,2.075-4.916,2.73
			c-1.966,0.655-4.079,1.202-6.335,1.639c-2.26,0.437-4.625,0.802-7.101,1.093c-2.478,0.293-4.953,0.655-7.427,1.092
			c-2.332,0.438-4.626,1.021-6.882,1.748c-2.26,0.73-4.226,1.714-5.899,2.949c-1.676,1.239-3.024,2.806-4.042,4.697
			c-1.02,1.895-1.529,4.298-1.529,7.209c0,2.769,0.509,5.101,1.529,6.991c1.018,1.895,2.404,3.387,4.151,4.479
			c1.748,1.093,3.786,1.857,6.118,2.294c2.328,0.438,4.731,0.655,7.209,0.655c6.117,0,10.848-1.016,14.201-3.058
			c3.348-2.039,5.823-4.479,7.427-7.319c1.601-2.84,2.584-5.715,2.95-8.63c0.361-2.911,0.546-5.243,0.546-6.991V1200.457z"/>
		<path clip-path="url(#SVGID_4_)" fill="#20D59E" d="M388.588,1142.781v20.754h-22.721v55.93c0,5.242,0.874,8.737,2.622,10.485
			c1.747,1.748,5.243,2.621,10.486,2.621c1.748,0,3.421-0.071,5.025-0.218c1.601-0.144,3.13-0.362,4.588-0.655v24.031
			c-2.622,0.437-5.537,0.728-8.739,0.874c-3.205,0.144-6.336,0.219-9.394,0.219c-4.806,0-9.36-0.328-13.655-0.982
			c-4.297-0.656-8.083-1.93-11.36-3.824c-3.277-1.892-5.864-4.588-7.755-8.083c-1.895-3.496-2.841-8.084-2.841-13.764v-66.634
			h-18.788v-20.754h18.788v-33.863h31.023v33.863H388.588z"/>
		<path clip-path="url(#SVGID_4_)" fill="#20D59E" d="M457.404,1163.098c-4.953,0-9.104,1.13-12.453,3.386
			c-3.352,2.261-6.083,5.172-8.193,8.739c-2.112,3.57-3.604,7.503-4.478,11.797c-0.874,4.298-1.311,8.559-1.311,12.781
			c0,4.079,0.437,8.229,1.311,12.452c0.874,4.227,2.294,8.05,4.26,11.47c1.967,3.424,4.622,6.228,7.974,8.411
			c3.349,2.185,7.428,3.277,12.235,3.277c7.427,0,13.142-2.076,17.15-6.227c4.004-4.15,6.516-9.722,7.537-16.713h29.93
			c-2.042,15.003-7.865,26.436-17.478,34.3c-9.612,7.864-21.921,11.797-36.921,11.797c-8.449,0-16.204-1.42-23.267-4.26
			c-7.066-2.84-13.074-6.807-18.024-11.906c-4.953-5.097-8.814-11.177-11.579-18.241c-2.768-7.064-4.151-14.819-4.151-23.269
			c0-8.738,1.274-16.856,3.824-24.358c2.546-7.499,6.298-13.982,11.251-19.444c4.949-5.462,10.995-9.721,18.133-12.78
			c7.134-3.059,15.293-4.588,24.468-4.588c6.698,0,13.143,0.873,19.335,2.621c6.189,1.748,11.722,4.407,16.604,7.975
			c4.878,3.57,8.848,8.012,11.906,13.326c3.059,5.318,4.807,11.616,5.244,18.897h-30.368
			C478.302,1169.581,470.655,1163.098,457.404,1163.098"/>
		<path clip-path="url(#SVGID_4_)" fill="#20D59E" d="M559.863,1099.742v58.77h0.656c3.933-6.555,8.957-11.324,15.074-14.311
			c6.117-2.982,12.087-4.479,17.915-4.479c8.301,0,15.108,1.13,20.426,3.386c5.315,2.26,9.504,5.391,12.562,9.395
			c3.059,4.009,5.206,8.886,6.444,14.638c1.236,5.755,1.857,12.125,1.857,19.115v69.474h-31.022v-63.793
			c0-9.319-1.458-16.276-4.37-20.864c-2.914-4.588-8.082-6.882-15.511-6.882c-8.449,0-14.565,2.513-18.352,7.537
			c-3.789,5.025-5.681,13.293-5.681,24.797v59.205h-31.021v-155.987H559.863z"/>
		<path clip-path="url(#SVGID_4_)" fill="#20D59E" d="M728.956,1099.742l60.953,155.987H766.97l-17.041-46.97h-65.977l-17.478,46.97
			h-21.192l60.735-155.987H728.956z M743.375,1191.281l-25.998-72.751h-0.437l-26.436,72.751H743.375z"/>
		<path clip-path="url(#SVGID_4_)" fill="#20D59E" d="M821.368,1142.781v15.292h0.436c3.06-6.26,7.866-10.813,14.42-13.654
			c6.554-2.84,13.764-4.26,21.628-4.26c8.739,0,16.349,1.605,22.83,4.807c6.479,3.205,11.869,7.537,16.167,12.999
			c4.294,5.461,7.537,11.763,9.722,18.897c2.186,7.138,3.277,14.712,3.277,22.721c0,8.013-1.058,15.586-3.168,22.722
			c-2.113,7.137-5.318,13.363-9.613,18.678c-4.297,5.318-9.687,9.504-16.166,12.562c-6.482,3.059-14.02,4.588-22.611,4.588
			c-2.769,0-5.865-0.294-9.285-0.874c-3.424-0.584-6.81-1.529-10.159-2.84c-3.352-1.312-6.52-3.093-9.503-5.353
			c-2.987-2.257-5.5-5.06-7.538-8.411h-0.436v58.112h-18.571v-155.986H821.368z M888.11,1182.87
			c-1.387-5.024-3.496-9.504-6.335-13.436c-2.842-3.933-6.483-7.063-10.925-9.395c-4.444-2.328-9.649-3.496-15.62-3.496
			c-6.265,0-11.578,1.239-15.948,3.715c-4.369,2.478-7.94,5.718-10.705,9.722c-2.769,4.008-4.772,8.558-6.008,13.654
			c-1.239,5.1-1.857,10.268-1.857,15.511c0,5.537,0.656,10.89,1.966,16.058c1.312,5.172,3.387,9.723,6.228,13.654
			c2.84,3.933,6.517,7.101,11.032,9.504c4.513,2.404,9.975,3.604,16.386,3.604c6.406,0,11.76-1.235,16.057-3.714
			c4.294-2.475,7.756-5.752,10.377-9.831c2.622-4.075,4.513-8.738,5.681-13.982c1.164-5.243,1.748-10.63,1.748-16.166
			C890.186,1193.028,889.492,1187.894,888.11,1182.87"/>
		<path clip-path="url(#SVGID_4_)" fill="#20D59E" d="M950.917,1142.781v15.292h0.437c3.059-6.26,7.865-10.813,14.42-13.654
			c6.553-2.84,13.763-4.26,21.628-4.26c8.739,0,16.348,1.605,22.83,4.807c6.479,3.205,11.869,7.537,16.167,12.999
			c4.294,5.461,7.537,11.763,9.722,18.897c2.185,7.138,3.277,14.712,3.277,22.721c0,8.013-1.059,15.586-3.168,22.722
			c-2.113,7.137-5.318,13.363-9.613,18.678c-4.297,5.318-9.688,9.504-16.166,12.562c-6.483,3.059-14.021,4.588-22.612,4.588
			c-2.768,0-5.865-0.294-9.285-0.874c-3.424-0.584-6.81-1.529-10.158-2.84c-3.353-1.312-6.521-3.093-9.503-5.353
			c-2.987-2.257-5.5-5.06-7.538-8.411h-0.437v58.112h-18.571v-155.986H950.917z M1017.659,1182.87
			c-1.386-5.024-3.496-9.504-6.335-13.436c-2.841-3.933-6.483-7.063-10.924-9.395c-4.445-2.328-9.65-3.496-15.62-3.496
			c-6.265,0-11.579,1.239-15.949,3.715c-4.369,2.478-7.939,5.718-10.705,9.722c-2.768,4.008-4.771,8.558-6.008,13.654
			c-1.239,5.1-1.857,10.268-1.857,15.511c0,5.537,0.656,10.89,1.967,16.058c1.311,5.172,3.387,9.723,6.227,13.654
			c2.84,3.933,6.517,7.101,11.033,9.504c4.512,2.404,9.974,3.604,16.385,3.604c6.407,0,11.76-1.235,16.057-3.714
			c4.294-2.475,7.757-5.752,10.378-9.831c2.621-4.075,4.513-8.738,5.681-13.982c1.164-5.243,1.748-10.63,1.748-16.166
			C1019.735,1193.028,1019.041,1187.894,1017.659,1182.87"/>
	</g>
	<g clip-path="url(#SVGID_2_)">
		<defs>
			<path id="SVGID_5_" d="M6.601,516.211c0,284.555,230.677,515.233,515.232,515.233c284.555,0,515.231-230.678,515.231-515.233
				c0-284.556-230.677-515.233-515.231-515.233C237.278,0.978,6.601,231.655,6.601,516.211"/>
		</defs>
		<clipPath id="SVGID_6_">
			<use xlink:href="#SVGID_5_"  overflow="visible"/>
		</clipPath>
		
			<linearGradient id="SVGID_7_" gradientUnits="userSpaceOnUse" x1="4.882812e-04" y1="1301.3921" x2="1.0005" y2="1301.3921" gradientTransform="matrix(0 -1030.4656 -1030.4656 0 1341559.75 1031.3901)">
			<stop  offset="0" style="stop-color:#0AE7FD"/>
			<stop  offset="1" style="stop-color:#2EE45C"/>
		</linearGradient>
		<rect x="6.601" y="0.978" clip-path="url(#SVGID_6_)" fill="url(#SVGID_7_)" width="1030.463" height="1030.466"/>
	</g>
	<g clip-path="url(#SVGID_2_)">
		<defs>
			<rect id="SVGID_8_" y="-0.002" width="1044.316" height="1301.392"/>
		</defs>
		<clipPath id="SVGID_9_">
			<use xlink:href="#SVGID_8_"  overflow="visible"/>
		</clipPath>
		<g opacity="0.7" clip-path="url(#SVGID_9_)">
			<g>
				<defs>
					<rect id="SVGID_10_" x="337.277" y="251.22" width="505.44" height="552.717"/>
				</defs>
				<clipPath id="SVGID_11_">
					<use xlink:href="#SVGID_10_"  overflow="visible"/>
				</clipPath>
				<g opacity="0.85" clip-path="url(#SVGID_11_)">
					<g>
						<defs>
							<rect id="SVGID_12_" x="337.277" y="251.22" width="505.44" height="552.717"/>
						</defs>
						<clipPath id="SVGID_13_">
							<use xlink:href="#SVGID_12_"  overflow="visible"/>
						</clipPath>
						<g clip-path="url(#SVGID_13_)">
							<defs>
								<rect id="SVGID_14_" x="337.277" y="251.217" width="505.44" height="552.721"/>
							</defs>
							<clipPath id="SVGID_15_">
								<use xlink:href="#SVGID_14_"  overflow="visible"/>
							</clipPath>
							<g transform="matrix(1 0 0 1 3.051758e-05 0)" clip-path="url(#SVGID_15_)">
								
									<image overflow="visible" width="2106" height="2303" xlink:href="F7AC69EC766BC44F.png"  transform="matrix(0.24 0 0 0.24 337.2769 251.2173)">
								</image>
							</g>
						</g>
					</g>
				</g>
				<path clip-path="url(#SVGID_11_)" fill="#FFFFFF" d="M805.181,654.999V457.727c0-26.253,1.168-52.806,0-79.039
					c-1.354-30.427-11.23-59.891-33.557-81.588c-37.001-35.959-91.806-40.988-136.43-16.849c-6.319,3.418-12.374,7.476-18.52,11.19
					c-65.048,39.304-130.096,78.607-195.145,117.911c-12.647,7.642-24.705,14.519-35.643,25.042
					c-55.471,53.368-40.934,139.872,22.153,179.693c23.747,14.99,48.119,29.075,72.154,43.597
					c40.127,24.246,80.254,48.492,120.381,72.738c10.912,6.593,21.667,13.671,32.829,19.836
					c17.793,9.826,37.81,16.807,58.358,16.772c29.815-0.049,59.448-12.234,80.609-33.247
					C794.822,711.494,801.024,685.394,805.181,654.999c3.21-23.478-13.291-55.036-29.271-70.831
					c-16.857-16.661-44.563-29.435-68.66-28.523c-25.872,0.98-52.923,9.517-70.828,29.272
					c-18.452,20.357-24.838,41.697-28.523,68.659c-0.178,1.301-0.356,2.6-0.533,3.899c4.411-16.2,8.823-32.399,13.235-48.599
					c3.845-4.611,7.69-9.222,11.536-13.833c6.727-5.233,13.455-10.467,20.182-15.7c-0.959,0.712-1.918,1.425-2.877,2.137
					c8.137-3.396,16.275-6.792,24.412-10.188c-2.145,1.203-4.445,1.816-6.904,1.839c8.745-1.128,17.49-2.256,26.236-3.383
					c-1.229-0.164-2.457-0.328-3.686-0.491c16.199,4.412,32.399,8.823,48.6,13.235c-13.265-5.728-25.525-14.8-37.861-22.254
					c-26.312-15.899-52.626-31.798-78.939-47.697c-26.55-16.042-53.1-32.084-79.649-48.126
					c-8.569-5.178-17.139-10.356-25.708-15.534c-9.396-5.677-23.878-17.828,6.461,6.485l15.701,20.182
					c-0.709-0.974-1.417-1.949-2.125-2.923c3.396,8.137,6.792,16.274,10.188,24.412c-0.425-1.094-0.85-2.188-1.274-3.283
					c1.128,8.745,2.255,17.49,3.383,26.236c-0.567-2.309-0.567-4.617,0-6.925c-1.169,8.443-2.337,16.885-3.506,25.328
					c-6.214,11.581-12.428,23.162-18.644,34.742c-6.728,5.234-13.455,10.467-20.182,15.701c38.661-23.36,77.322-46.72,115.982-70.08
					c26.312-15.899,52.627-31.798,78.938-47.697c12.342-7.457,24.593-16.525,37.861-22.254c-8.137,3.396-16.274,6.792-24.411,10.188
					c1.228-0.164,2.456-0.327,3.684-0.491c-8.745,1.128-17.489,2.255-26.234,3.383c1.194,0.16,2.391,0.321,3.586,0.481
					c-8.442-1.168-16.885-2.337-25.328-3.506c-11.624-6.234-23.247-12.468-34.87-18.702c-5.234-6.727-10.467-13.455-15.7-20.182
					c0.495,1.136,0.99,2.272,1.485,3.408c-3.396-8.138-6.792-16.275-10.189-24.412c0.179,1.299,0.356,2.599,0.534,3.898
					c-1.128-8.745-2.256-17.49-3.383-26.235v276.94c0,51.534,44.458,101.379,97.931,99.354
					C758.939,750.917,805.181,710.2,805.181,654.999"/>
			</g>
		</g>
		<g opacity="0.85" clip-path="url(#SVGID_9_)">
			<g>
				<defs>
					<rect id="SVGID_16_" x="223.653" y="251.22" width="505.44" height="552.717"/>
				</defs>
				<clipPath id="SVGID_17_">
					<use xlink:href="#SVGID_16_"  overflow="visible"/>
				</clipPath>
				<g clip-path="url(#SVGID_17_)">
					<defs>
						<rect id="SVGID_18_" x="223.653" y="251.217" width="505.44" height="552.721"/>
					</defs>
					<clipPath id="SVGID_19_">
						<use xlink:href="#SVGID_18_"  overflow="visible"/>
					</clipPath>
					<g transform="matrix(1 0 0 1 1.525879e-05 0)" clip-path="url(#SVGID_19_)">
						
							<image overflow="visible" width="2106" height="2303" xlink:href="F7AC69EC766BC44D.png"  transform="matrix(0.24 0 0 0.24 223.6528 251.2173)">
						</image>
					</g>
				</g>
			</g>
		</g>
		<path clip-path="url(#SVGID_9_)" fill="#FFFFFF" d="M238.345,377.424v197.271c0,26.253-1.168,52.806,0,79.039
			c1.354,30.427,11.23,59.891,33.556,81.588c37.001,35.959,91.806,40.988,136.43,16.85c6.319-3.418,12.374-7.477,18.52-11.19
			c65.048-39.304,130.096-78.607,195.144-117.911c12.647-7.642,24.705-14.519,35.643-25.042
			c55.472-53.368,40.935-139.872-22.152-179.693c-23.747-14.99-48.119-29.075-72.154-43.597
			C523.204,350.492,483.077,326.246,442.95,302c-10.912-6.593-21.667-13.671-32.829-19.836
			c-17.793-9.826-37.809-16.807-58.358-16.773c-29.816,0.049-59.448,12.235-80.61,33.247
			C248.703,320.928,242.501,347.028,238.345,377.424c-3.21,23.477,13.291,55.036,29.271,70.83
			c16.858,16.661,44.564,29.435,68.66,28.523c25.873-0.98,52.923-9.517,70.829-29.272c18.452-20.357,24.837-41.697,28.523-68.659
			c0.178-1.3,0.356-2.599,0.533-3.899c-4.411,16.2-8.823,32.399-13.235,48.599c-3.845,4.611-7.691,9.222-11.536,13.833
			c-6.727,5.233-13.455,10.467-20.182,15.7c0.959-0.712,1.918-1.425,2.877-2.137c-8.137,3.396-16.275,6.792-24.412,10.188
			c2.144-1.203,4.445-1.816,6.904-1.839c-8.745,1.128-17.49,2.256-26.236,3.383c1.228,0.164,2.457,0.328,3.685,0.491
			c-16.199-4.412-32.399-8.823-48.599-13.235c13.264,5.728,25.524,14.8,37.861,22.254c26.313,15.899,52.626,31.798,78.94,47.697
			c26.549,16.042,53.099,32.084,79.649,48.126c8.569,5.178,17.139,10.356,25.708,15.534c9.396,5.677,23.878,17.828-6.461-6.485
			c-5.234-6.727-10.467-13.455-15.701-20.182c0.708,0.974,1.417,1.949,2.125,2.923c-3.396-8.137-6.792-16.274-10.188-24.412
			c0.425,1.094,0.85,2.188,1.275,3.283c-1.128-8.745-2.255-17.49-3.383-26.236c0.567,2.309,0.567,4.617,0,6.925l3.506-25.328
			c6.214-11.581,12.428-23.162,18.643-34.742c6.728-5.234,13.456-10.467,20.182-15.701c-38.661,23.36-77.322,46.72-115.982,70.08
			c-26.313,15.899-52.627,31.798-78.94,47.697c-12.341,7.457-24.593,16.525-37.86,22.254c8.137-3.396,16.274-6.792,24.411-10.188
			c-1.228,0.164-2.456,0.327-3.684,0.491c8.745-1.128,17.49-2.255,26.235-3.383c-1.195-0.16-2.391-0.321-3.586-0.481
			c8.442,1.168,16.885,2.337,25.328,3.506c11.624,6.234,23.247,12.468,34.87,18.702c5.234,6.727,10.467,13.455,15.7,20.182
			c-0.495-1.136-0.99-2.272-1.485-3.408c3.396,8.138,6.792,16.275,10.189,24.412c-0.178-1.299-0.356-2.599-0.534-3.897
			c1.128,8.745,2.256,17.49,3.383,26.234v-276.94c0-51.534-44.458-101.378-97.931-99.353
			C284.586,281.505,238.345,322.222,238.345,377.424"/>
		<path clip-path="url(#SVGID_9_)" fill="#FFFFFF" d="M977.927,516.211c-0.019,12.381-0.479,24.756-1.443,37.1
			c-0.485,6.213-1.092,12.416-1.823,18.604c-0.16,1.369-0.336,2.736-0.503,4.105c-0.011,0.094-0.3,2.345-0.105,0.869
			c0.214-1.632-0.166,1.197-0.214,1.545c-0.414,2.944-0.854,5.884-1.324,8.82c-3.812,23.851-9.472,47.406-16.923,70.382
			c-3.641,11.226-7.707,22.312-12.188,33.229c-0.257,0.626-1.498,3.612-0.637,1.568c-0.603,1.429-1.218,2.852-1.838,4.274
			c-1.237,2.84-2.502,5.668-3.796,8.482c-2.397,5.217-4.891,10.39-7.478,15.515c-10.589,20.98-22.762,41.16-36.369,60.32
			c-3.294,4.639-6.678,9.213-10.131,13.734c1.473-1.928-1.024,1.312-1.431,1.83c-0.811,1.03-1.626,2.059-2.445,3.084
			c-1.911,2.389-3.845,4.761-5.802,7.112c-7.404,8.898-15.134,17.525-23.171,25.857c-8.035,8.329-16.375,16.363-24.999,24.081
			c-4.396,3.933-8.864,7.785-13.404,11.551c-2.187,1.814-4.39,3.608-6.608,5.383c-1.024,0.819-2.053,1.635-3.083,2.444
			c-0.517,0.406-1.033,0.809-1.551,1.214c-1.961,1.534,0.394-0.291-0.802,0.615c-18.535,14.052-37.97,26.842-58.34,38.081
			c-10.235,5.646-20.681,10.911-31.31,15.775c-2.616,1.197-5.243,2.37-7.882,3.52c-1.218,0.531-2.438,1.057-3.661,1.577
			c-2.096,0.89,1.771-0.731-0.334,0.135c-0.821,0.338-1.641,0.679-2.462,1.014c-5.35,2.188-10.738,4.274-16.166,6.261
			c-22.571,8.263-45.78,14.775-69.355,19.466c-5.804,1.154-11.63,2.199-17.474,3.133c-2.936,0.469-5.875,0.91-8.819,1.323
			c-0.681,0.096-1.362,0.191-2.043,0.282c2.382-0.318,0.045-0.013-0.372,0.038c-1.597,0.195-3.192,0.396-4.79,0.583
			c-12.199,1.423-24.454,2.367-36.726,2.836c-24.921,0.954-49.918-0.037-74.682-2.997c-1.369-0.164-2.736-0.339-4.103-0.51
			c-1.662-0.208,0.031,0.013,0.311,0.05c-0.682-0.091-1.362-0.187-2.043-0.282c-3.17-0.445-6.335-0.922-9.495-1.433
			c-6.065-0.978-12.111-2.074-18.133-3.292c-11.722-2.366-23.352-5.185-34.857-8.444c-11.398-3.23-22.672-6.896-33.792-10.982
			c-5.632-2.07-11.216-4.263-16.769-6.536c-0.616-0.252-1.23-0.509-1.844-0.764c0.251,0.104,1.769,0.753,0.28,0.12
			c-1.427-0.606-2.851-1.222-4.272-1.842c-2.838-1.241-5.664-2.512-8.476-3.809c-21.182-9.768-41.63-21.124-61.125-33.931
			c-4.943-3.247-9.825-6.588-14.643-10.02c-2.139-1.523-4.265-3.065-6.379-4.625c-1.232-0.908-2.46-1.823-3.684-2.745
			c-0.671-0.505-3.354-2.545-2.758-2.087c-2.847-2.187-8.943-7.082-12.908-10.391c-4.361-3.638-8.657-7.356-12.884-11.149
			c-17.391-15.606-33.625-32.505-48.519-50.51c-1.811-2.189-3.603-4.395-5.375-6.616c-0.818-1.025-1.631-2.055-2.44-3.087
			c-0.405-0.517-0.808-1.033-1.211-1.552c-1.377-1.774,1.144,1.505-0.213-0.285c-3.57-4.708-7.084-9.456-10.492-14.284
			c-6.702-9.492-13.052-19.233-19.034-29.196c-6.002-10-11.633-20.224-16.874-30.643c-2.68-5.327-5.258-10.705-7.732-16.13
			c-1.194-2.618-2.364-5.247-3.509-7.886c-0.529-1.219-1.056-2.44-1.572-3.665c0.88,2.088-0.814-1.998-1.141-2.8
			c-8.939-21.959-16.202-44.599-21.703-67.661c-2.791-11.702-5.13-23.512-7.011-35.395c-0.465-2.937-0.898-5.879-1.311-8.823
			c-0.372-2.643,0.094,0.919-0.225-1.734c-0.22-1.826-0.453-3.649-0.663-5.476c-0.686-5.963-1.259-11.94-1.717-17.926
			c-1.909-24.915-1.854-49.986,0.164-74.893c0.503-6.207,1.128-12.405,1.876-18.587c0.166-1.368,0.34-2.735,0.515-4.101
			c-0.291,2.275,0.142-1.036,0.241-1.73c0.449-3.168,0.931-6.332,1.445-9.491c1.932-11.866,4.322-23.658,7.162-35.34
			c5.66-23.278,13.221-45.966,22.238-68.15c0.972-2.392-0.368,0.811,0.651-1.56c0.524-1.221,1.049-2.442,1.582-3.66
			c1.241-2.838,2.51-5.664,3.807-8.477c2.497-5.413,5.097-10.778,7.799-16.092c5.284-10.394,10.955-20.591,16.999-30.563
			c6.022-9.936,12.413-19.648,19.153-29.112c1.65-2.318,3.322-4.62,5.014-6.907c0.781-1.056,1.566-2.108,2.355-3.156
			c0.337-0.447,3.25-4.271,1.794-2.381c3.604-4.673,7.318-9.263,11.104-13.788c14.855-17.755,31.015-34.415,48.308-49.804
			c4.406-3.922,8.886-7.761,13.436-11.515c2.023-1.669,4.06-3.321,6.111-4.956c1.196-0.954,2.399-1.901,3.604-2.845
			c0.516-0.404,1.033-0.808,1.552-1.209c-1.155,0.891-0.469,0.361,0.289-0.209c9.28-6.978,18.717-13.717,28.45-20.053
			c19.738-12.849,40.442-24.213,61.885-33.955c2.62-1.191,5.251-2.356,7.892-3.498c0.585-0.252,3.509-1.494,2.61-1.118
			c-1.327,0.556,0.697-0.286,0.783-0.32c0.822-0.334,1.641-0.677,2.462-1.011c5.56-2.263,11.163-4.419,16.805-6.466
			c11.142-4.042,22.437-7.66,33.854-10.842c11.526-3.212,23.176-5.98,34.915-8.298c6.031-1.19,12.086-2.263,18.159-3.215
			c2.938-0.461,5.881-0.895,8.828-1.298c1.658-0.227-0.034,0.008-0.313,0.044c0.683-0.088,1.366-0.176,2.049-0.262
			c1.825-0.229,3.651-0.447,5.478-0.654c24.562-2.791,49.342-3.648,74.039-2.594c12.26,0.524,24.5,1.521,36.682,2.995
			c0.685,0.083,1.368,0.168,2.053,0.253c0.348,0.044,3.185,0.407,1.552,0.193c-1.001-0.131,2.255,0.313,2.906,0.407
			c3.167,0.454,6.328,0.94,9.486,1.459c6.06,0.996,12.1,2.11,18.115,3.343c23.312,4.779,46.256,11.343,68.567,19.619
			c5.418,2.009,10.779,4.15,16.132,6.327c2.571,1.045,0.886,0.361,0.337,0.13c0.613,0.258,1.224,0.521,1.835,0.782
			c1.22,0.526,2.44,1.053,3.657,1.587c2.836,1.245,5.658,2.518,8.47,3.82c10.604,4.909,21.027,10.215,31.235,15.903
			c10.356,5.771,20.494,11.935,30.386,18.472c4.751,3.141,9.445,6.367,14.08,9.677c2.314,1.654,4.614,3.329,6.898,5.025
			c1.055,0.782,2.105,1.568,3.152,2.359c0.524,0.396,1.045,0.795,1.569,1.189c3.349,2.52-1.102-0.869,0.806,0.612
			c18.29,14.196,35.521,29.764,51.524,46.493c8.003,8.365,15.697,17.024,23.064,25.954c1.809,2.191,3.596,4.4,5.365,6.624
			c0.952,1.198,1.896,2.402,2.84,3.607c0.056,0.072,1.375,1.784,0.511,0.659c-0.809-1.054,0.759,1,0.9,1.188
			c3.562,4.714,7.059,9.477,10.453,14.314c13.377,19.061,25.339,39.115,35.745,59.948c2.666,5.335,5.228,10.722,7.688,16.156
			c1.095,2.42,2.169,4.849,3.223,7.287c0.257,0.592,1.819,4.306,0.929,2.163c0.596,1.434,1.188,2.87,1.771,4.309
			c4.437,10.941,8.457,22.049,12.05,33.295c7.356,23.022,12.918,46.615,16.627,70.498c0.455,2.939,0.893,5.883,1.285,8.831
			c-0.303-2.275,0.124,1.045,0.21,1.739c0.171,1.369,0.333,2.739,0.491,4.109c0.688,5.963,1.259,11.94,1.717,17.926
			C977.466,491.918,977.908,504.062,977.927,516.211c0.011,7.565,6.427,14,14,14c7.584,0,14.011-6.407,14-14
			c-0.074-50.603-7.857-101.374-23.543-149.507c-15.074-46.256-37.076-90.339-65.302-129.974
			c-28.618-40.188-62.911-75.606-102.049-105.619c-38.596-29.596-81.619-52.973-127.257-69.753
			c-47.24-17.368-97.371-26.973-147.65-28.891c-50.59-1.93-101.73,4.105-150.445,17.91c-47.099,13.346-92.358,33.986-133.235,60.926
			c-40.221,26.508-76.649,58.882-107.311,96.049c-31.6,38.303-57.022,80.834-75.872,126.761
			c-18.951,46.174-30.197,95.262-34.08,144.998c-3.976,50.927,0.281,102.644,12.349,152.279
			C63.08,678.881,82.1,724.785,107.431,766.58c25.066,41.36,56.421,79.147,92.597,111.252
			c36.179,32.106,77.026,59.006,121.109,78.957c46.312,20.962,95.192,34.444,145.678,40.33c50.699,5.91,102.296,3.476,152.314-6.628
			c48.32-9.76,95.198-27.271,138.255-51.262c42.266-23.551,81.139-53.671,114.536-88.678c33.307-34.914,61.594-74.875,83.099-118.08
			c22.106-44.413,37.55-92.098,45.023-141.16c3.788-24.873,5.848-49.936,5.885-75.1c0.011-7.566-6.442-14-14-14
			C984.324,502.211,977.938,508.618,977.927,516.211"/>
	</g>
</g>
</svg>
