<?xml version="1.0" encoding="utf-8"?>
<!-- Generator: Adobe Illustrator 16.0.0, SVG Export Plug-In . SVG Version: 6.00 Build 0)  -->
<!DOCTYPE svg PUBLIC "-//W3C//DTD SVG 1.1//EN" "http://www.w3.org/Graphics/SVG/1.1/DTD/svg11.dtd">
<svg version="1.1" xmlns="http://www.w3.org/2000/svg" xmlns:xlink="http://www.w3.org/1999/xlink" x="0px" y="0px"
	 width="566.93px" height="510.24px" viewBox="0 0 566.93 510.24" enable-background="new 0 0 566.93 510.24" xml:space="preserve">
<g id="Camada_1">
</g>
<g id="Layer_1">
	<g id="XMLID_238_">
		<path id="XMLID_180_" fill="#F1453D" d="M151.194,302.937L151.194,302.937c-25.744,0-46.782-21.039-46.782-46.783V68.815
			c0-25.744,21.038-46.783,46.782-46.783l0,0c25.744,0,46.783,21.039,46.783,46.783v187.338
			C197.978,281.897,176.938,302.937,151.194,302.937z"/>
		<path id="XMLID_179_" fill="#673FB4" d="M415.904,302.937L415.904,302.937c25.744,0,46.782-21.039,46.782-46.783V68.815
			c0-25.744-21.038-46.783-46.782-46.783l0,0c-25.744,0-46.782,21.039-46.782,46.783v187.338
			C369.122,281.897,390.16,302.937,415.904,302.937z"/>
		<path id="XMLID_135_" fill="#CDDA49" d="M250.435,234.354L250.435,234.354c18.201,18.201,47.959,18.201,66.16,0l132.459-132.527
			c18.2-18.201,18.2-47.959,0-66.16l0,0c-18.201-18.201-47.959-18.201-66.16,0L250.435,168.125
			C232.233,186.326,232.233,216.153,250.435,234.354z"/>
		<path id="XMLID_104_" fill="#2B98F0" d="M316.733,234.354L316.733,234.354c-18.201,18.201-47.959,18.201-66.16,0L118.045,101.826
			c-18.2-18.201-18.2-47.959,0-66.16l0,0c18.201-18.201,47.96-18.201,66.16,0l132.459,132.458
			C334.935,186.326,334.935,216.153,316.733,234.354z"/>
		<path id="XMLID_51_" fill="#292938" d="M165.382,24.386c-0.277-0.069-0.554-0.208-0.831-0.277
			c-0.969-0.277-2.007-0.554-3.045-0.761c-0.484-0.139-1.038-0.277-1.592-0.346c-0.83-0.208-1.729-0.277-2.63-0.415
			c-0.622-0.069-1.314-0.208-1.938-0.277c-1.245-0.139-2.491-0.139-3.806-0.208c-0.277,0-0.554-0.069-0.831-0.069
			c-1.592,0-3.184,0.069-4.706,0.208c-0.069,0-0.138,0-0.207,0c-21.661,2.284-39.032,19.793-41.315,41.592c0,0.069,0,0.139,0,0.208
			c-0.139,1.522-0.208,3.114-0.208,4.706c0,11.973,4.637,23.945,13.703,33.08l80.001,80.278l-0.347-113.358
			C197.631,48.123,183.998,30.545,165.382,24.386z"/>
		<path id="XMLID_49_" fill="#523632" d="M449.677,101.826c9.273-9.066,13.426-21.038,13.426-33.08c0-1.592-0.277-3.184-0.484-4.706
			c0-0.069-0.139-0.138-0.139-0.208c-2.354-21.799-20.139-39.239-42.354-41.592c-0.069,0-0.139,0-0.208,0
			c-1.592-0.138-3.184-0.208-4.844-0.208c-0.277,0-0.554,0-0.831,0.069c-1.314,0-2.561,0.069-3.875,0.208
			c-0.692,0.069-1.315,0.208-2.007,0.277c-0.9,0.138-1.8,0.208-2.699,0.415c-0.554,0.069-1.038,0.277-1.592,0.346
			c-1.038,0.208-2.076,0.484-3.045,0.761c-0.277,0.069,0.346,0.208,0.069,0.277c-19.032,6.159-31.974,23.737-31.974,44.43v112.943
			L449.677,101.826z"/>
		<text transform="matrix(1 0 0 1 20 437.3477)" fill="#FFFFFF" font-family="'Helvetica-Bold'" font-size="114.9192">Match</text>
		<text transform="matrix(1 0 0 1 346.3018 437.3477)" fill="#FFFFFF" font-family="'Helvetica'" font-size="114.9192">App</text>
		<path id="XMLID_77_" fill="#288147" d="M316.595,234.354l1.177-1.176c17.094-18.271,16.748-47.198-1.038-64.984l-33.149-33.149
			l-33.149,33.08c-17.854,17.855-18.132,46.713-1.038,64.984l1.177,1.177c9.065,9.065,21.038,13.633,33.011,13.633
			C295.557,247.987,307.529,243.42,316.595,234.354z"/>
	</g>
</g>
</svg>
