<?xml version="1.0" encoding="utf-8"?>
<!-- Generator: Adobe Illustrator 19.0.0, SVG Export Plug-In . SVG Version: 6.00 Build 0)  -->
<svg version="1.1" id="Layer_1" xmlns="http://www.w3.org/2000/svg" xmlns:xlink="http://www.w3.org/1999/xlink" x="0px" y="0px"
	 viewBox="0 0 75.9 75.9" style="enable-background:new 0 0 75.9 75.9;" xml:space="preserve">
<style type="text/css">
	.st0{fill:#FFFFFF;}
</style>
<g id="Twitter_5_">
	<path class="st0" d="M38,0C17,0,0,17,0,38c0,21,17,38,38,38c21,0,38-17,38-38C75.9,17,58.9,0,38,0z M52.4,29.9c0,0.3,0,0.7,0,1
		c0,10.4-7.7,22.4-21.9,22.4c-4.3,0-8.4-1.3-11.8-3.5c0.6,0.1,1.2,0.1,1.8,0.1c3.6,0,6.9-1.3,9.5-3.4c-3.4-0.1-6.2-2.3-7.2-5.5
		c0.5,0.1,1,0.1,1.4,0.1c0.7,0,1.7-0.1,2.4-0.3C23.3,40.2,21,37,21,33.2v-0.1c1,0.6,1.9,0.9,3.1,1c-2.1-1.4-3.6-3.8-3.6-6.6
		c0-1.4,0.3-2.8,1-4c3.8,4.8,9.4,7.9,15.8,8.2c-0.1-0.6-0.2-1.2-0.2-1.8c0-4.3,3.4-7.9,7.7-7.9c2.2,0,4.2,1,5.6,2.5
		c1.8-0.4,3.4-1,4.9-1.9c-0.6,1.8-1.8,3.4-3.4,4.4c1.6-0.2,3-0.6,4.4-1.2C55.2,27.4,53.9,28.8,52.4,29.9z"/>
</g>
</svg>
