<?xml version="1.0" encoding="utf-8"?>
<!-- Generator: Adobe Illustrator 19.0.0, SVG Export Plug-In . SVG Version: 6.00 Build 0)  -->
<svg version="1.1" id="Layer_1" xmlns="http://www.w3.org/2000/svg" xmlns:xlink="http://www.w3.org/1999/xlink" x="0px" y="0px"
	 viewBox="0 0 75.9 75.9" style="enable-background:new 0 0 75.9 75.9;" xml:space="preserve">
<style type="text/css">
	.st0{fill:#FFFFFF;}
</style>
<g>
	<path id="XMLID_72_" class="st0" d="M37.6,43.5c0,0,0.1,0.1,0.1,0.1L54.3,25h-33l16.2,18.6C37.5,43.6,37.5,43.5,37.6,43.5z"/>
	<path id="XMLID_71_" class="st0" d="M39.8,45.7c-0.7,0.7-1.5,1.1-2.2,1.1c-0.8,0-1.5-0.4-2.2-1.1L32,41.6L21.9,51h32.3L43.7,41
		L39.8,45.7z"/>
	<polygon id="XMLID_70_" class="st0" points="20,26.8 20,49.6 30.8,39.4 	"/>
	<path class="st0" d="M38,0C17,0,0,17,0,38c0,21,17,38,38,38c21,0,38-17,38-38C75.9,17,58.9,0,38,0z M61,50.8c0,2.1-2.8,4.2-4.7,4.2
		H19.7c-1.9,0-2.7-2.1-2.7-4.2V25.2c0-2.1,0.8-4.2,2.7-4.2h36.6c1.9,0,4.7,2.1,4.7,4.2V50.8z"/>
	<polygon id="XMLID_68_" class="st0" points="58,49.5 58,26.4 47,38.9 	"/>
</g>
</svg>
