<svg id="Layer_1" xmlns="http://www.w3.org/2000/svg" viewBox="235.8 247.5 66 66"><style>.st0,.st1{fill:none;stroke:#4d4d4d;stroke-width:3;stroke-miterlimit:10}.st1{fill:#4d4d4d;stroke-width:1.1}</style><circle class="st0" cx="268.8" cy="280.5" r="31.1"/><path class="st1" d="M259.5 294.9v-4.6c0-.6-.4-1.4-1-1.4h-3.4c-1.2 0-2-.7-2-1.8v-15.4c0-1.1.8-1.9 2-1.9h23.4c1.2 0 2 .7 2 1.9v15.4c0 1.1-.7 1.8-2 1.8h-12.2c-.1 0-.2.2-.3.3-.1.1-.1.2-.2.2l-6.3 5.5zm-4.4-24c-.4 0-1 .1-1 .9v15.4c0 .2 0 .8 1 .8h3.4c1.2 0 2 1.2 2 2.3v2.4l4.6-4 .2-.2c.2-.2.6-.6 1.1-.6h12.2c.9 0 1-.5 1-.8v-15.4c0-.6-.3-.9-1-.9h-23.5zm27.3 14.7h-.9c-.3 0-.5-.2-.5-.5s.2-.5.5-.5h.9c.6 0 1-.7 1-1.3v-15.4c0-.6-.3-.9-1-.9H259c-.4 0-1 .1-1 .9v1.1c0 .3-.2.5-.5.5s-.5-.2-.5-.5v-1.1c0-1.1.8-1.9 2-1.9h23.4c1.2 0 2 .7 2 1.9v15.4c0 1.1-.8 2.3-2 2.3z"/></svg>