<svg id="Layer_1" xmlns="http://www.w3.org/2000/svg" viewBox="-57.1 247.5 66 66"><style>.st0,.st1{fill:#4d4d4d;stroke:#4d4d4d;stroke-miterlimit:10}.st1{fill:none;stroke-width:3}</style><path class="st0" d="M-24.1 297.6l-.5-.7c-.5-.6-11.4-15.1-11.4-21.5 0-6.6 5.3-11.9 11.9-11.9s11.9 5.3 11.9 11.9c0 6.4-10.9 20.9-11.4 21.5l-.5.7zm0-32.8c-5.8 0-10.5 4.7-10.5 10.5 0 5.1 8.3 16.8 10.5 19.9 2.2-3.1 10.5-14.8 10.5-19.9 0-5.8-4.7-10.5-10.5-10.5zm0 15.7c-2.9 0-5.2-2.3-5.2-5.2 0-2.9 2.3-5.2 5.2-5.2s5.2 2.3 5.2 5.2c0 2.9-2.4 5.2-5.2 5.2zm0-9c-2.1 0-3.8 1.7-3.8 3.8 0 2.1 1.7 3.8 3.8 3.8s3.8-1.7 3.8-3.8c0-2-1.7-3.8-3.8-3.8z"/><circle class="st1" cx="-24.1" cy="280.5" r="31.1"/></svg>