<svg xmlns="http://www.w3.org/2000/svg" width="566.93" height="510.24" viewBox="0 0 566.93 510.24"><path fill="#F1453D" d="M151.194 302.937c-25.744 0-46.782-21.039-46.782-46.783V68.815c0-25.744 21.038-46.783 46.782-46.783 25.744 0 46.783 21.039 46.783 46.783v187.338c.001 25.744-21.039 46.784-46.783 46.784z"/><path fill="#673FB4" d="M415.904 302.937c25.744 0 46.782-21.039 46.782-46.783V68.815c0-25.744-21.038-46.783-46.782-46.783-25.744 0-46.782 21.039-46.782 46.783v187.338c0 25.744 21.038 46.784 46.782 46.784z"/><path fill="#CDDA49" d="M250.435 234.354c18.201 18.201 47.959 18.201 66.16 0l132.459-132.527c18.2-18.201 18.2-47.959 0-66.16-18.201-18.201-47.959-18.201-66.16 0L250.435 168.125c-18.202 18.201-18.202 48.028 0 66.229z"/><path fill="#2B98F0" d="M316.733 234.354c-18.201 18.201-47.959 18.201-66.16 0L118.045 101.826c-18.2-18.201-18.2-47.959 0-66.16 18.201-18.201 47.96-18.201 66.16 0l132.459 132.458c18.271 18.202 18.271 48.029.069 66.23z"/><path fill="#292938" d="M165.382 24.386c-.277-.069-.554-.208-.831-.277a38.806 38.806 0 0 0-3.045-.761 10.634 10.634 0 0 0-1.592-.346c-.83-.208-1.729-.277-2.63-.415-.622-.069-1.314-.208-1.938-.277-1.245-.139-2.491-.139-3.806-.208-.277 0-.554-.069-.831-.069-1.592 0-3.184.069-4.706.208h-.207c-21.661 2.284-39.032 19.793-41.315 41.592v.208a52.126 52.126 0 0 0-.208 4.706c0 11.973 4.637 23.945 13.703 33.08l80.001 80.278-.347-113.358c.001-20.624-13.632-38.202-32.248-44.361z"/><path fill="#523632" d="M449.677 101.826c9.273-9.066 13.426-21.038 13.426-33.08 0-1.592-.277-3.184-.484-4.706 0-.069-.139-.138-.139-.208-2.354-21.799-20.139-39.239-42.354-41.592h-.208a55.678 55.678 0 0 0-4.844-.208c-.277 0-.554 0-.831.069a36.19 36.19 0 0 0-3.875.208c-.692.069-1.315.208-2.007.277-.9.138-1.8.208-2.699.415-.554.069-1.038.277-1.592.346a39.256 39.256 0 0 0-3.045.761c-.277.069.346.208.069.277-19.032 6.159-31.974 23.737-31.974 44.43v112.943l80.557-79.932z"/><text transform="translate(20 437.348)" fill="#FFF" font-family="'Helvetica-Bold'" font-size="114.919">Match</text><text transform="translate(346.302 437.348)" fill="#FFF" font-family="'Helvetica'" font-size="114.919">App</text><path fill="#288147" d="M316.595 234.354l1.177-1.176c17.094-18.271 16.748-47.198-1.038-64.984l-33.149-33.149-33.149 33.08c-17.854 17.855-18.132 46.713-1.038 64.984l1.177 1.177c9.065 9.065 21.038 13.633 33.011 13.633 11.971.068 23.943-4.499 33.009-13.565z"/></svg>