<svg xmlns="http://www.w3.org/2000/svg" xmlns:xlink="http://www.w3.org/1999/xlink" width="1044.32" height="1301.39" viewBox="0 0 1044.32 1301.39"><defs><path id="a" d="M0 0h1044.32v1301.39H0z"/></defs><clipPath id="b"><use xlink:href="#a" overflow="visible"/></clipPath><path clip-path="url(#b)" fill="#20D59E" d="M54.551 1099.742l36.484 107.269h.437l34.518-107.269h48.282v155.987h-32.115v-110.546h-.437l-38.231 110.546H77.053l-38.231-109.453h-.438v109.453H6.269v-155.987z"/><g clip-path="url(#b)"><defs><path id="c" d="M0-.002h1044.316V1301.39H0z"/></defs><clipPath id="d"><use xlink:href="#c" overflow="visible"/></clipPath><path clip-path="url(#d)" fill="#20D59E" d="M199.833 1177.518c.437-7.282 2.256-13.328 5.462-18.134 3.202-4.807 7.281-8.664 12.234-11.579 4.95-2.911 10.521-4.987 16.713-6.227a95.228 95.228 0 0 1 18.679-1.856c5.68 0 11.432.402 17.259 1.201 5.824.803 11.142 2.369 15.948 4.697 4.807 2.331 8.739 5.571 11.798 9.722 3.058 4.151 4.587 9.65 4.587 16.494v58.769c0 5.1.29 9.978.874 14.638.581 4.663 1.602 8.158 3.059 10.486h-31.459a43.726 43.726 0 0 1-1.421-5.353 45.814 45.814 0 0 1-.764-5.571c-4.954 5.101-10.78 8.667-17.478 10.705a70.192 70.192 0 0 1-20.536 3.059c-5.39 0-10.415-.655-15.074-1.966-4.663-1.311-8.739-3.349-12.235-6.117-3.495-2.765-6.226-6.26-8.192-10.486-1.966-4.223-2.949-9.248-2.949-15.074 0-6.407 1.126-11.688 3.386-15.84 2.256-4.149 5.168-7.462 8.739-9.94 3.567-2.475 7.646-4.331 12.234-5.57a131.379 131.379 0 0 1 13.873-2.949 236.205 236.205 0 0 1 13.763-1.748c4.513-.437 8.52-1.093 12.016-1.966 3.496-.874 6.261-2.147 8.302-3.823 2.038-1.673 2.984-4.113 2.84-7.318 0-3.35-.546-6.009-1.639-7.975-1.092-1.967-2.549-3.496-4.369-4.588-1.823-1.093-3.932-1.819-6.336-2.185-2.403-.362-4.99-.546-7.755-.546-6.117 0-10.923 1.311-14.419 3.932-3.496 2.622-5.537 6.991-6.117 13.109h-31.023zm71.658 22.939c-1.311 1.167-2.949 2.075-4.916 2.73a50.331 50.331 0 0 1-6.335 1.639c-2.26.437-4.625.802-7.101 1.093-2.478.293-4.953.655-7.427 1.092a56.297 56.297 0 0 0-6.882 1.748c-2.26.73-4.226 1.714-5.899 2.949-1.676 1.239-3.024 2.806-4.042 4.697-1.02 1.895-1.529 4.298-1.529 7.209 0 2.769.509 5.101 1.529 6.991 1.018 1.895 2.404 3.387 4.151 4.479 1.748 1.093 3.786 1.857 6.118 2.294 2.328.438 4.731.655 7.209.655 6.117 0 10.848-1.016 14.201-3.058 3.348-2.039 5.823-4.479 7.427-7.319 1.601-2.84 2.584-5.715 2.95-8.63.361-2.911.546-5.243.546-6.991v-11.578zM388.588 1142.781v20.754h-22.721v55.93c0 5.242.874 8.737 2.622 10.485 1.747 1.748 5.243 2.621 10.486 2.621 1.748 0 3.421-.071 5.025-.218a42.704 42.704 0 0 0 4.588-.655v24.031c-2.622.437-5.537.728-8.739.874-3.205.144-6.336.219-9.394.219-4.806 0-9.36-.328-13.655-.982-4.297-.656-8.083-1.93-11.36-3.824-3.277-1.892-5.864-4.588-7.755-8.083-1.895-3.496-2.841-8.084-2.841-13.764v-66.634h-18.788v-20.754h18.788v-33.863h31.023v33.863h22.721zM457.404 1163.098c-4.953 0-9.104 1.13-12.453 3.386-3.352 2.261-6.083 5.172-8.193 8.739-2.112 3.57-3.604 7.503-4.478 11.797a64.012 64.012 0 0 0-1.311 12.781c0 4.079.437 8.229 1.311 12.452.874 4.227 2.294 8.05 4.26 11.47 1.967 3.424 4.622 6.228 7.974 8.411 3.349 2.185 7.428 3.277 12.235 3.277 7.427 0 13.142-2.076 17.15-6.227 4.004-4.15 6.516-9.722 7.537-16.713h29.93c-2.042 15.003-7.865 26.436-17.478 34.3-9.612 7.864-21.921 11.797-36.921 11.797-8.449 0-16.204-1.42-23.267-4.26-7.066-2.84-13.074-6.807-18.024-11.906-4.953-5.097-8.814-11.177-11.579-18.241-2.768-7.064-4.151-14.819-4.151-23.269 0-8.738 1.274-16.856 3.824-24.358 2.546-7.499 6.298-13.982 11.251-19.444 4.949-5.462 10.995-9.721 18.133-12.78 7.134-3.059 15.293-4.588 24.468-4.588 6.698 0 13.143.873 19.335 2.621 6.189 1.748 11.722 4.407 16.604 7.975 4.878 3.57 8.848 8.012 11.906 13.326 3.059 5.318 4.807 11.616 5.244 18.897h-30.368c-2.041-12.96-9.688-19.443-22.939-19.443M559.863 1099.742v58.77h.656c3.933-6.555 8.957-11.324 15.074-14.311 6.117-2.982 12.087-4.479 17.915-4.479 8.301 0 15.108 1.13 20.426 3.386 5.315 2.26 9.504 5.391 12.562 9.395 3.059 4.009 5.206 8.886 6.444 14.638 1.236 5.755 1.857 12.125 1.857 19.115v69.474h-31.022v-63.793c0-9.319-1.458-16.276-4.37-20.864-2.914-4.588-8.082-6.882-15.511-6.882-8.449 0-14.565 2.513-18.352 7.537-3.789 5.025-5.681 13.293-5.681 24.797v59.205H528.84v-155.987h31.023zM728.956 1099.742l60.953 155.987H766.97l-17.041-46.97h-65.977l-17.478 46.97h-21.192l60.735-155.987h22.939zm14.419 91.539l-25.998-72.751h-.437l-26.436 72.751h52.871zM821.368 1142.781v15.292h.436c3.06-6.26 7.866-10.813 14.42-13.654 6.554-2.84 13.764-4.26 21.628-4.26 8.739 0 16.349 1.605 22.83 4.807 6.479 3.205 11.869 7.537 16.167 12.999 4.294 5.461 7.537 11.763 9.722 18.897 2.186 7.138 3.277 14.712 3.277 22.721 0 8.013-1.058 15.586-3.168 22.722-2.113 7.137-5.318 13.363-9.613 18.678-4.297 5.318-9.687 9.504-16.166 12.562-6.482 3.059-14.02 4.588-22.611 4.588-2.769 0-5.865-.294-9.285-.874a51.62 51.62 0 0 1-10.159-2.84c-3.352-1.312-6.52-3.093-9.503-5.353-2.987-2.257-5.5-5.06-7.538-8.411h-.436v58.112h-18.571v-155.986h18.57zm66.742 40.089c-1.387-5.024-3.496-9.504-6.335-13.436-2.842-3.933-6.483-7.063-10.925-9.395-4.444-2.328-9.649-3.496-15.62-3.496-6.265 0-11.578 1.239-15.948 3.715-4.369 2.478-7.94 5.718-10.705 9.722-2.769 4.008-4.772 8.558-6.008 13.654a65.456 65.456 0 0 0-1.857 15.511c0 5.537.656 10.89 1.966 16.058 1.312 5.172 3.387 9.723 6.228 13.654 2.84 3.933 6.517 7.101 11.032 9.504 4.513 2.404 9.975 3.604 16.386 3.604 6.406 0 11.76-1.235 16.057-3.714 4.294-2.475 7.756-5.752 10.377-9.831 2.622-4.075 4.513-8.738 5.681-13.982 1.164-5.243 1.748-10.63 1.748-16.166a57.852 57.852 0 0 0-2.077-15.402M950.917 1142.781v15.292h.437c3.059-6.26 7.865-10.813 14.42-13.654 6.553-2.84 13.763-4.26 21.628-4.26 8.739 0 16.348 1.605 22.83 4.807 6.479 3.205 11.869 7.537 16.167 12.999 4.294 5.461 7.537 11.763 9.722 18.897 2.185 7.138 3.277 14.712 3.277 22.721 0 8.013-1.059 15.586-3.168 22.722-2.113 7.137-5.318 13.363-9.613 18.678-4.297 5.318-9.688 9.504-16.166 12.562-6.483 3.059-14.021 4.588-22.612 4.588-2.768 0-5.865-.294-9.285-.874a51.592 51.592 0 0 1-10.158-2.84c-3.353-1.312-6.521-3.093-9.503-5.353-2.987-2.257-5.5-5.06-7.538-8.411h-.437v58.112h-18.571v-155.986h18.57zm66.742 40.089c-1.386-5.024-3.496-9.504-6.335-13.436-2.841-3.933-6.483-7.063-10.924-9.395-4.445-2.328-9.65-3.496-15.62-3.496-6.265 0-11.579 1.239-15.949 3.715-4.369 2.478-7.939 5.718-10.705 9.722-2.768 4.008-4.771 8.558-6.008 13.654a65.456 65.456 0 0 0-1.857 15.511c0 5.537.656 10.89 1.967 16.058 1.311 5.172 3.387 9.723 6.227 13.654 2.84 3.933 6.517 7.101 11.033 9.504 4.512 2.404 9.974 3.604 16.385 3.604 6.407 0 11.76-1.235 16.057-3.714 4.294-2.475 7.757-5.752 10.378-9.831 2.621-4.075 4.513-8.738 5.681-13.982 1.164-5.243 1.748-10.63 1.748-16.166a57.894 57.894 0 0 0-2.078-15.402"/></g><g clip-path="url(#b)"><defs><path id="e" d="M6.601 516.211c0 284.555 230.677 515.233 515.232 515.233 284.555 0 515.231-230.678 515.231-515.233C1037.064 231.655 806.387.978 521.833.978 237.278.978 6.601 231.655 6.601 516.211"/></defs><clipPath id="f"><use xlink:href="#e" overflow="visible"/></clipPath><linearGradient id="g" gradientUnits="userSpaceOnUse" y1="1301.392" x2="1" y2="1301.392" gradientTransform="matrix(0 -1030.4656 -1030.4656 0 1341559.75 1031.39)"><stop offset="0" stop-color="#0ae7fd"/><stop offset="1" stop-color="#2ee45c"/></linearGradient><path clip-path="url(#f)" fill="url(#g)" d="M6.601.978h1030.463v1030.466H6.601z"/></g><g clip-path="url(#b)"><defs><path id="h" d="M0-.002h1044.316V1301.39H0z"/></defs><clipPath id="i"><use xlink:href="#h" overflow="visible"/></clipPath><g opacity=".7" clip-path="url(#i)"><defs><path id="j" d="M337.277 251.22h505.44v552.717h-505.44z"/></defs><clipPath id="k"><use xlink:href="#j" overflow="visible"/></clipPath><g opacity=".85" clip-path="url(#k)"><defs><path id="l" d="M337.277 251.22h505.44v552.717h-505.44z"/></defs><clipPath id="m"><use xlink:href="#l" overflow="visible"/></clipPath><g clip-path="url(#m)"><defs><path id="n" d="M337.277 251.217h505.44v552.721h-505.44z"/></defs><clipPath id="o"><use xlink:href="#n" overflow="visible"/></clipPath><g clip-path="url(#o)"><image overflow="visible" width="2106" height="2303" xlink:href="F7AC69EC766BC44F.png" transform="matrix(.24 0 0 .24 337.277 251.217)"/></g></g></g><path clip-path="url(#k)" fill="#FFF" d="M805.181 654.999V457.727c0-26.253 1.168-52.806 0-79.039-1.354-30.427-11.23-59.891-33.557-81.588-37.001-35.959-91.806-40.988-136.43-16.849-6.319 3.418-12.374 7.476-18.52 11.19L421.529 409.352c-12.647 7.642-24.705 14.519-35.643 25.042-55.471 53.368-40.934 139.872 22.153 179.693 23.747 14.99 48.119 29.075 72.154 43.597l120.381 72.738c10.912 6.593 21.667 13.671 32.829 19.836 17.793 9.826 37.81 16.807 58.358 16.772 29.815-.049 59.448-12.234 80.609-33.247 22.452-22.289 28.654-48.389 32.811-78.784 3.21-23.478-13.291-55.036-29.271-70.831-16.857-16.661-44.563-29.435-68.66-28.523-25.872.98-52.923 9.517-70.828 29.272-18.452 20.357-24.838 41.697-28.523 68.659l-.533 3.899 13.235-48.599 11.536-13.833 20.182-15.7-2.877 2.137 24.412-10.188a14.164 14.164 0 0 1-6.904 1.839l26.236-3.383-3.686-.491 48.6 13.235c-13.265-5.728-25.525-14.8-37.861-22.254L621.3 512.541l-79.649-48.126-25.708-15.534c-9.396-5.677-23.878-17.828 6.461 6.485l15.701 20.182-2.125-2.923 10.188 24.412-1.274-3.283 3.383 26.236a14.309 14.309 0 0 1 0-6.925l-3.506 25.328c-6.214 11.581-12.428 23.162-18.644 34.742l-20.182 15.701 115.982-70.08 78.938-47.697c12.342-7.457 24.593-16.525 37.861-22.254l-24.411 10.188 3.684-.491-26.234 3.383 3.586.481-25.328-3.506-34.87-18.702-15.7-20.182 1.485 3.408-10.189-24.412c.179 1.299.356 2.599.534 3.898l-3.383-26.235v276.94c0 51.534 44.458 101.379 97.931 99.354 53.108-2.012 99.35-42.729 99.35-97.93"/></g><g opacity=".85" clip-path="url(#i)"><defs><path id="p" d="M223.653 251.22h505.44v552.717h-505.44z"/></defs><clipPath id="q"><use xlink:href="#p" overflow="visible"/></clipPath><g clip-path="url(#q)"><defs><path id="r" d="M223.653 251.217h505.44v552.721h-505.44z"/></defs><clipPath id="s"><use xlink:href="#r" overflow="visible"/></clipPath><g clip-path="url(#s)"><image overflow="visible" width="2106" height="2303" xlink:href="F7AC69EC766BC44D.png" transform="matrix(.24 0 0 .24 223.653 251.217)"/></g></g></g><path clip-path="url(#i)" fill="#FFF" d="M238.345 377.424v197.271c0 26.253-1.168 52.806 0 79.039 1.354 30.427 11.23 59.891 33.556 81.588 37.001 35.959 91.806 40.988 136.43 16.85 6.319-3.418 12.374-7.477 18.52-11.19l195.144-117.911c12.647-7.642 24.705-14.519 35.643-25.042 55.472-53.368 40.935-139.872-22.152-179.693-23.747-14.99-48.119-29.075-72.154-43.597L442.95 302c-10.912-6.593-21.667-13.671-32.829-19.836-17.793-9.826-37.809-16.807-58.358-16.773-29.816.049-59.448 12.235-80.61 33.247-22.45 22.29-28.652 48.39-32.808 78.786-3.21 23.477 13.291 55.036 29.271 70.83 16.858 16.661 44.564 29.435 68.66 28.523 25.873-.98 52.923-9.517 70.829-29.272 18.452-20.357 24.837-41.697 28.523-68.659l.533-3.899-13.235 48.599-11.536 13.833-20.182 15.7 2.877-2.137-24.412 10.188a14.161 14.161 0 0 1 6.904-1.839l-26.236 3.383 3.685.491-48.599-13.235c13.264 5.728 25.524 14.8 37.861 22.254l78.94 47.697 79.649 48.126 25.708 15.534c9.396 5.677 23.878 17.828-6.461-6.485l-15.701-20.182 2.125 2.923-10.188-24.412 1.275 3.283-3.383-26.236a14.309 14.309 0 0 1 0 6.925l3.506-25.328 18.643-34.742c6.728-5.234 13.456-10.467 20.182-15.701l-115.982 70.08-78.94 47.697c-12.341 7.457-24.593 16.525-37.86 22.254l24.411-10.188-3.684.491 26.235-3.383-3.586-.481 25.328 3.506 34.87 18.702 15.7 20.182-1.485-3.408 10.189 24.412-.534-3.897 3.383 26.234v-276.94c0-51.534-44.458-101.378-97.931-99.353-53.111 2.011-99.352 42.728-99.352 97.93"/><path clip-path="url(#i)" fill="#FFF" d="M977.927 516.211c-.019 12.381-.479 24.756-1.443 37.1a471.108 471.108 0 0 1-1.823 18.604c-.16 1.369-.336 2.736-.503 4.105-.011.094-.3 2.345-.105.869.214-1.632-.166 1.197-.214 1.545a467.387 467.387 0 0 1-18.247 79.202 466.712 466.712 0 0 1-12.188 33.229c-.257.626-1.498 3.612-.637 1.568a392.5 392.5 0 0 1-1.838 4.274 468.433 468.433 0 0 1-11.274 23.997 469.898 469.898 0 0 1-36.369 60.32 490.37 490.37 0 0 1-10.131 13.734c1.473-1.928-1.024 1.312-1.431 1.83a470.663 470.663 0 0 1-8.247 10.196 473.373 473.373 0 0 1-23.171 25.857 473.387 473.387 0 0 1-48.094 43.459c-.517.406-1.033.809-1.551 1.214-1.961 1.534.394-.291-.802.615-18.535 14.052-37.97 26.842-58.34 38.081a468.071 468.071 0 0 1-42.853 20.872c-2.096.89 1.771-.731-.334.135-.821.338-1.641.679-2.462 1.014a466.864 466.864 0 0 1-113.857 30.465c2.382-.318.045-.013-.372.038-1.597.195-3.192.396-4.79.583a472.886 472.886 0 0 1-36.726 2.836 476.113 476.113 0 0 1-74.682-2.997c-1.369-.164-2.736-.339-4.103-.51-1.662-.208.031.013.311.05-.682-.091-1.362-.187-2.043-.282-3.17-.445-6.335-.922-9.495-1.433a466.74 466.74 0 0 1-86.782-22.718 495.715 495.715 0 0 1-16.769-6.536c-.616-.252-1.23-.509-1.844-.764a473.647 473.647 0 0 1-3.992-1.722 469.37 469.37 0 0 1-84.244-47.76 463.692 463.692 0 0 1-10.063-7.37c-.671-.505-3.354-2.545-2.758-2.087-2.847-2.187-8.943-7.082-12.908-10.391a472.86 472.86 0 0 1-70.429-72.914c-1.377-1.774 1.144 1.505-.213-.285-3.57-4.708-7.084-9.456-10.492-14.284a469.712 469.712 0 0 1-43.64-75.969 465.892 465.892 0 0 1-5.081-11.551c.88 2.088-.814-1.998-1.141-2.8a466.807 466.807 0 0 1-30.025-111.879c-.372-2.643.094.919-.225-1.734-.22-1.826-.453-3.649-.663-5.476a471.762 471.762 0 0 1-1.717-17.926 476.84 476.84 0 0 1 .164-74.893 472.418 472.418 0 0 1 2.391-22.688c-.291 2.275.142-1.036.241-1.73a467.982 467.982 0 0 1 8.607-44.831c5.66-23.278 13.221-45.966 22.238-68.15.972-2.392-.368.811.651-1.56a469.37 469.37 0 0 1 5.389-12.137 469.146 469.146 0 0 1 24.798-46.655 471.25 471.25 0 0 1 26.522-39.175c.337-.447 3.25-4.271 1.794-2.381a445.394 445.394 0 0 1 11.104-13.788 472.98 472.98 0 0 1 73.011-70.329c-1.155.891-.469.361.289-.209 9.28-6.978 18.717-13.717 28.45-20.053a469.305 469.305 0 0 1 69.777-37.453c.585-.252 3.509-1.494 2.61-1.118-1.327.556.697-.286.783-.32.822-.334 1.641-.677 2.462-1.011a466.683 466.683 0 0 1 112.248-30.075c.683-.088 1.366-.176 2.049-.262a476.241 476.241 0 0 1 116.199-.253c.685.083 1.368.168 2.053.253.348.044 3.185.407 1.552.193-1.001-.131 2.255.313 2.906.407a467.975 467.975 0 0 1 27.601 4.802 466.791 466.791 0 0 1 68.567 19.619c5.418 2.009 10.779 4.15 16.132 6.327 2.571 1.045.886.361.337.13.613.258 1.224.521 1.835.782a465.468 465.468 0 0 1 12.127 5.407 468.778 468.778 0 0 1 61.621 34.375 474.703 474.703 0 0 1 14.08 9.677 470.4 470.4 0 0 1 10.05 7.384c.524.396 1.045.795 1.569 1.189 3.349 2.52-1.102-.869.806.612a471.072 471.072 0 0 1 51.524 46.493 472.528 472.528 0 0 1 31.269 36.185c.056.072 1.375 1.784.511.659-.809-1.054.759 1 .9 1.188a502.977 502.977 0 0 1 10.453 14.314 470.055 470.055 0 0 1 35.745 59.948 466.926 466.926 0 0 1 10.911 23.443c.257.592 1.819 4.306.929 2.163a465.86 465.86 0 0 1 13.821 37.604 467.393 467.393 0 0 1 16.627 70.498c.455 2.939.893 5.883 1.285 8.831-.303-2.275.124 1.045.21 1.739a467.7 467.7 0 0 1 2.208 22.035c.933 12.117 1.375 24.261 1.394 36.41.011 7.565 6.427 14 14 14 7.584 0 14.011-6.407 14-14-.074-50.603-7.857-101.374-23.543-149.507-15.074-46.256-37.076-90.339-65.302-129.974-28.618-40.188-62.911-75.606-102.049-105.619-38.596-29.596-81.619-52.973-127.257-69.753-47.24-17.368-97.371-26.973-147.65-28.891-50.59-1.93-101.73 4.105-150.445 17.91-47.099 13.346-92.358 33.986-133.235 60.926-40.221 26.508-76.649 58.882-107.311 96.049-31.6 38.303-57.022 80.834-75.872 126.761-18.951 46.174-30.197 95.262-34.08 144.998-3.976 50.927.281 102.644 12.349 152.279 11.548 47.491 30.568 93.395 55.899 135.19 25.066 41.36 56.421 79.147 92.597 111.252 36.179 32.106 77.026 59.006 121.109 78.957 46.312 20.962 95.192 34.444 145.678 40.33 50.699 5.91 102.296 3.476 152.314-6.628 48.32-9.76 95.198-27.271 138.255-51.262 42.266-23.551 81.139-53.671 114.536-88.678 33.307-34.914 61.594-74.875 83.099-118.08 22.106-44.413 37.55-92.098 45.023-141.16 3.788-24.873 5.848-49.936 5.885-75.1.011-7.566-6.442-14-14-14-7.603 0-13.989 6.407-14 14"/></g></svg>