<svg xmlns="http://www.w3.org/2000/svg" width="283.46" height="226.77" viewBox="0 0 283.46 226.77"><path fill="#F1453D" d="M68.844 143.971c-12.357 0-22.456-10.098-22.456-22.455V31.592c0-12.357 10.099-22.456 22.456-22.456S91.3 19.235 91.3 31.592v89.923c0 12.358-10.098 22.456-22.456 22.456z"/><path fill="#673FB4" d="M195.905 143.971c12.357 0 22.457-10.098 22.457-22.455V31.592c0-12.357-10.1-22.456-22.457-22.456-12.357 0-22.455 10.099-22.455 22.456v89.923c0 12.358 10.098 22.456 22.455 22.456z"/><path fill="#CDDA49" d="M116.48 111.051c8.736 8.737 23.021 8.737 31.757 0l63.58-63.614c8.736-8.736 8.736-23.021 0-31.757s-23.021-8.736-31.757 0l-63.58 63.581c-8.737 8.737-8.737 23.054 0 31.79z"/><path fill="#2B98F0" d="M148.304 111.051c-8.736 8.737-23.021 8.737-31.757 0L52.932 47.438c-8.736-8.736-8.736-23.021 0-31.757 8.737-8.736 23.021-8.736 31.757 0l63.581 63.581c8.77 8.736 8.77 23.053.034 31.789z"/><path fill="#292938" d="M75.654 10.266c-.133-.033-.266-.1-.398-.133a18.5 18.5 0 0 0-1.463-.365 5.167 5.167 0 0 0-.764-.166c-.399-.1-.831-.133-1.262-.2-.299-.033-.631-.1-.93-.133-.598-.066-1.196-.066-1.827-.1-.133 0-.266-.033-.399-.033-.764 0-1.528.033-2.259.1h-.1c-10.397 1.096-18.735 9.5-19.832 19.964v.1a25.3 25.3 0 0 0-.1 2.259c0 5.747 2.226 11.494 6.577 15.878L91.3 85.971l-.166-54.412c0-9.899-6.544-18.337-15.48-21.293z"/><path fill="#523632" d="M212.116 47.438c4.451-4.352 6.445-10.099 6.445-15.878 0-.764-.133-1.528-.232-2.259 0-.033-.066-.066-.066-.1-1.13-10.464-9.668-18.835-20.33-19.964h-.1c-.765-.066-1.528-.1-2.326-.1-.133 0-.266 0-.398.033-.631 0-1.229.033-1.859.1-.333.033-.632.1-.964.133-.433.066-.864.1-1.296.2-.266.033-.498.133-.764.166-.498.1-.996.232-1.462.365-.133.033.166.1.033.133-9.135 2.957-15.347 11.394-15.347 21.327v54.213l38.666-38.369z"/><g fill="#FFF"><path d="M20.479 208.49v-39.217h10.316l9.965 28.9h.162l10.074-28.9h10.262v39.217h-7.865v-26.773l-.162-.027-9.696 26.801h-5.333l-9.696-26.854-.162.026v26.827h-7.865zM66.071 200.258c0-2.85 1.1-5.059 3.3-6.627 2.199-1.568 5.409-2.352 9.629-2.352h4.417v-2.316c0-1.401-.368-2.487-1.104-3.26-.737-.771-1.832-1.158-3.286-1.158-1.275 0-2.258.311-2.949.93-.691.619-1.037 1.468-1.037 2.545h-7.568l-.054-.162v-.377c-.018-2.298 1.051-4.291 3.206-5.979 2.262-1.796 5.234-2.693 8.915-2.693 3.501 0 6.334.879 8.498 2.639 2.164 1.76 3.246 4.283 3.246 7.568v12.021c0 1.368.103 2.654.31 3.861.206 1.206.534 2.403.983 3.592h-7.838a16.869 16.869 0 0 1-.741-2.111 14.735 14.735 0 0 1-.444-2.275 10.8 10.8 0 0 1-3.205 3.545c-1.329.938-2.909 1.406-4.741 1.406-3.053 0-5.405-.786-7.057-2.36-1.654-1.574-2.48-3.72-2.48-6.437zm7.865-.268c0 .984.319 1.767.957 2.348.637.582 1.521.873 2.653.873 1.364 0 2.586-.34 3.663-1.02 1.078-.681 1.813-1.468 2.208-2.362v-4.106H79c-1.67 0-2.932.412-3.784 1.234-.853.824-1.28 1.834-1.28 3.033zM94.21 184.868v-5.521h4.229v-7.138h7.865v7.138h4.902v5.521h-4.902v14.863c0 1.133.238 1.942.714 2.428.476.485 1.1.728 1.872.728.413 0 .772-.021 1.078-.066a9.048 9.048 0 0 0 1.05-.229l.646 5.659c-.791.269-1.558.47-2.303.604-.746.135-1.558.201-2.438.201-2.72 0-4.813-.744-6.282-2.234-1.469-1.49-2.203-3.852-2.203-7.084V184.87H94.21zM114.376 194.35v-.809c0-4.273 1.172-7.797 3.515-10.572 2.343-2.773 5.66-4.16 9.952-4.16 3.58 0 6.463 1.022 8.651 3.068 2.115 1.974 3.173 4.558 3.173 7.752v.328l-.054.164h-7.245c0-1.509-.4-2.762-1.199-3.758s-1.908-1.495-3.326-1.495c-2.029 0-3.47.812-4.323 2.435s-1.279 3.697-1.279 6.226v.808c0 2.581.426 4.67 1.279 6.266s2.312 2.394 4.377 2.394c1.365 0 2.451-.405 3.259-1.218s1.212-1.896 1.212-3.254h7.245l.054.154v.256c0 2.808-1.099 5.183-3.296 7.126-2.27 1.979-5.08 2.978-8.431 2.995-4.323 0-7.665-1.377-10.025-4.134s-3.539-6.281-3.539-10.572zM143.646 208.49v-42.018h7.865v16.526c.916-1.316 2.037-2.345 3.366-3.083s2.802-1.107 4.417-1.107c3.035 0 5.418 1.01 7.151 3.029 1.733 2.021 2.6 5.141 2.6 9.359v17.293h-7.865v-17.386c0-2.268-.363-3.874-1.091-4.819-.727-.944-1.818-1.417-3.272-1.417-1.203 0-2.249.194-3.138.581s-1.611.939-2.168 1.66v21.381h-7.865z"/></g><g fill="#FFF"><path d="M174.521 208.49l14.41-39.217h3.044l14.302 39.217h-3.34l-3.905-10.936H181.82l-3.96 10.936h-3.339zm8.323-13.818h15.137l-7.434-20.793h-.162l-7.541 20.793zM211.252 219.694v-40.348h2.477l.594 4.552c.969-1.615 2.226-2.868 3.771-3.758 1.544-.889 3.357-1.332 5.44-1.332 3.502 0 6.24 1.396 8.215 4.188 1.976 2.793 2.963 6.514 2.963 11.164v.566c0 4.363-.987 7.842-2.963 10.438-1.975 2.594-4.695 3.891-8.16 3.891-2.029 0-3.812-.386-5.348-1.158a9.826 9.826 0 0 1-3.757-3.285v15.083h-3.232zm3.231-18.45c.754 1.58 1.822 2.824 3.205 3.73 1.383.907 3.106 1.36 5.171 1.36 2.819 0 4.961-1.06 6.424-3.179 1.464-2.118 2.195-4.929 2.195-8.43v-.566c0-3.698-.736-6.715-2.208-9.049-1.473-2.335-3.628-3.502-6.464-3.502-2.138 0-3.884.512-5.239 1.535-1.356 1.023-2.384 2.353-3.084 3.986v14.115zM241.626 219.694v-40.348h2.478l.593 4.552c.97-1.615 2.226-2.868 3.771-3.758 1.545-.889 3.357-1.332 5.441-1.332 3.501 0 6.239 1.396 8.215 4.188 1.975 2.793 2.963 6.514 2.963 11.164v.566c0 4.363-.988 7.842-2.963 10.438-1.976 2.594-4.695 3.891-8.161 3.891-2.029 0-3.812-.386-5.347-1.158a9.836 9.836 0 0 1-3.758-3.285v15.083h-3.232zm3.231-18.45c.754 1.58 1.822 2.824 3.205 3.73 1.383.907 3.107 1.36 5.172 1.36 2.818 0 4.961-1.06 6.424-3.179 1.463-2.118 2.195-4.929 2.195-8.43v-.566c0-3.698-.736-6.715-2.209-9.049-1.473-2.335-3.627-3.502-6.464-3.502-2.138 0-3.884.512-5.239 1.535s-2.383 2.353-3.084 3.986v14.115z"/></g><path fill="#288147" d="M148.237 111.051l.564-.564c8.205-8.77 8.039-22.655-.498-31.192l-15.912-15.912-15.911 15.878c-8.571 8.57-8.704 22.422-.499 31.192l.565.564c4.352 4.352 10.098 6.544 15.845 6.544a22.173 22.173 0 0 0 15.846-6.51z"/></svg>