<svg id="Layer_1" xmlns="http://www.w3.org/2000/svg" viewBox="-219 50 583.5 669"><style>.st0{fill:#fff}.st1{fill:none;stroke:#fff;stroke-width:16.439;stroke-miterlimit:10}</style><path id="XMLID_246_" class="st0" d="M72.7 53.9c-134.5 0-243.5 109-243.5 243.5s109 243.5 243.5 243.5 243.5-109 243.5-243.5S207.2 53.9 72.7 53.9zm0 470.3c-125.3 0-226.8-101.6-226.8-226.8S-52.5 70.6 72.7 70.6c125.3 0 226.8 101.6 226.8 226.8S198 524.2 72.7 524.2z"/><g id="XMLID_136_"><path id="XMLID_140_" class="st1" d="M-35.1 411.9c-21 0-38.1-17.2-38.1-38.1V221.1c0-21 17.2-38.1 38.1-38.1 21 0 38.1 17.2 38.1 38.1v152.7c0 20.9-17.2 38.1-38.1 38.1z"/><path id="XMLID_139_" class="st1" d="M99.7 355.9c-14.8 14.8-39.1 14.8-53.9 0l-108-108c-14.8-14.8-14.8-39.1 0-53.9 14.8-14.8 39.1-14.8 53.9 0l108 108c14.9 14.8 14.9 39.1 0 53.9z"/><path id="XMLID_138_" class="st1" d="M180.6 411.9c21 0 38.1-17.2 38.1-38.1V221.1c0-21-17.2-38.1-38.1-38.1-21 0-38.1 17.2-38.1 38.1v152.7c0 20.9 17.1 38.1 38.1 38.1z"/><path id="XMLID_137_" class="st1" d="M45.7 355.9c14.8 14.8 39.1 14.8 53.9 0l108-108c14.8-14.8 14.8-39.1 0-53.9-14.8-14.8-39.1-14.8-53.9 0l-108 108c-14.8 14.8-14.8 39.1 0 53.9z"/></g><g id="XMLID_113_"><path id="XMLID_132_" class="st0" d="M-153 596.8h27.7v92.1h-17.9v-62.3c0-1.8 0-4.3.1-7.5 0-3.2.1-5.7.1-7.5l-17.5 77.3h-18.7l-17.3-77.3c0 1.7 0 4.2.1 7.5 0 3.2.1 5.7.1 7.5v62.3h-18.1v-92.1h28l16.8 72.4 16.6-72.4z"/><path id="XMLID_129_" class="st0" d="M-83.2 647.5c3.3-.4 5.7-.9 7.1-1.6 2.6-1.1 3.8-2.8 3.8-5.1 0-2.8-1-4.7-2.9-5.8-2-1.1-4.8-1.6-8.6-1.6-4.3 0-7.3 1-9.1 3.1-1.3 1.5-2.1 3.6-2.5 6.2h-17.2c.4-6 2-10.9 5-14.7 4.7-6 12.8-9 24.3-9 7.5 0 14.1 1.5 20 4.4 5.8 3 8.7 8.5 8.7 16.7v31.2c0 2.2 0 4.8.1 7.9.1 2.3.5 3.9 1.1 4.7s1.5 1.5 2.6 2.1v2.6h-19.4c-.5-1.4-.9-2.7-1.1-3.9-.2-1.2-.4-2.6-.5-4.1-2.5 2.7-5.3 4.9-8.5 6.8-3.9 2.2-8.2 3.3-13.1 3.3-6.2 0-11.3-1.8-15.4-5.3s-6.1-8.5-6.1-15c0-8.4 3.3-14.4 9.8-18.2 3.6-2 8.8-3.5 15.7-4.4l6.2-.3zm10.9 8.3c-1.1.7-2.3 1.3-3.5 1.7s-2.8.8-4.8 1.2l-4.1.8c-3.8.7-6.5 1.5-8.2 2.4-2.8 1.6-4.2 4.1-4.2 7.6 0 3 .9 5.2 2.6 6.6s3.8 2 6.2 2c3.9 0 7.5-1.1 10.8-3.4 3.3-2.2 5-6.4 5.1-12.3l.1-6.6z"/><path id="XMLID_127_" class="st0" d="M-47.3 634.1v-12.7h9.5v-19h17.6v19h11.1v12.7h-11.1v36c0 2.8.4 4.5 1.1 5.2.7.7 2.9 1 6.5 1h1.7c.6 0 1.2-.1 1.8-.1v13.3l-8.4.3c-8.4.3-14.2-1.2-17.2-4.4-2-2-3-5.2-3-9.4v-41.9h-9.6z"/><path id="XMLID_125_" class="st0" d="M41.8 645.3c-.3-2.5-1.2-4.8-2.6-6.9-2-2.7-5.1-4.1-9.3-4.1-6 0-10.1 3-12.3 8.9-1.2 3.2-1.8 7.4-1.8 12.6 0 5 .6 9 1.8 12 2.1 5.7 6.1 8.5 12 8.5 4.2 0 7.1-1.1 8.9-3.4s2.8-5.2 3.2-8.7h18.2c-.4 5.4-2.4 10.5-5.9 15.4-5.6 7.8-13.9 11.7-24.8 11.7s-19-3.2-24.2-9.7-7.8-14.9-7.8-25.3c0-11.7 2.9-20.8 8.6-27.3 5.7-6.5 13.6-9.7 23.6-9.7 8.5 0 15.5 1.9 21 5.7 5.4 3.8 8.7 10.6 9.7 20.3H41.8z"/><path id="XMLID_123_" class="st0" d="M119.8 621.2c3.4 1.5 6.2 3.7 8.4 6.7 1.9 2.5 3 5.2 3.4 7.8.4 2.7.6 7.1.6 13.2v40H114v-41.5c0-3.7-.6-6.6-1.9-8.9-1.6-3.2-4.7-4.8-9.2-4.8-4.7 0-8.2 1.6-10.6 4.7-2.4 3.1-3.6 7.6-3.6 13.5v36.9H71V597h17.8v32.5c2.6-4 5.5-6.7 8.9-8.3s6.9-2.3 10.7-2.3c4.2.1 8 .8 11.4 2.3z"/><path id="XMLID_120_" class="st0" d="M176 597.1h14l33.3 91.8h-13.6l-9.6-27.5h-36l-10 27.5h-12.7l34.6-91.8zm20.6 54.2l-14.1-40.5-14.7 40.5h28.8z"/><path id="XMLID_117_" class="st0" d="M230.9 622.3h11v8.9c2.3-3 4.7-5.4 7.4-7.1 3.8-2.5 8.3-3.7 13.4-3.7 7.6 0 14.1 2.9 19.4 8.7s8 14.1 8 24.9c0 14.6-3.8 25-11.5 31.2-4.9 4-10.5 5.9-16.9 5.9-5.1 0-9.3-1.1-12.7-3.3-2-1.2-4.2-3.4-6.7-6.4v34.2h-11.2v-93.3h-.2zm42.3 52.5c3.5-4.4 5.2-11 5.2-19.7 0-5.3-.8-9.9-2.3-13.7-2.9-7.4-8.3-11.1-16-11.1-7.8 0-13.2 3.9-16 11.7-1.5 4.2-2.3 9.5-2.3 15.9 0 5.2.8 9.6 2.3 13.2 2.9 6.9 8.3 10.4 16 10.4 5.2-.1 9.6-2.3 13.1-6.7z"/><path id="XMLID_114_" class="st0" d="M300.7 622.3h11v8.9c2.3-3 4.7-5.4 7.4-7.1 3.8-2.5 8.3-3.7 13.4-3.7 7.6 0 14.1 2.9 19.4 8.7 5.3 5.8 8 14.1 8 24.9 0 14.6-3.8 25-11.5 31.2-4.9 4-10.5 5.9-16.9 5.9-5.1 0-9.3-1.1-12.7-3.3-2-1.2-4.2-3.4-6.7-6.4v34.2h-11.2v-93.3h-.2zm42.3 52.5c3.5-4.4 5.2-11 5.2-19.7 0-5.3-.8-9.9-2.3-13.7-2.9-7.4-8.3-11.1-16-11.1-7.8 0-13.2 3.9-16 11.7-1.5 4.2-2.3 9.5-2.3 15.9 0 5.2.8 9.6 2.3 13.2 2.9 6.9 8.3 10.4 16 10.4 5.3-.1 9.7-2.3 13.1-6.7z"/></g></svg>