<svg id="Layer_1" xmlns="http://www.w3.org/2000/svg" viewBox="0 0 75.9 75.9"><style>.st0{fill:#fff}</style><path class="st0" d="M38 0C17 0 0 17 0 38s17 38 38 38 38-17 38-38C75.9 17 58.9 0 38 0zm14.4 29.9v1c0 10.4-7.7 22.4-21.9 22.4-4.3 0-8.4-1.3-11.8-3.5.6.1 1.2.1 1.8.1 3.6 0 6.9-1.3 9.5-3.4-3.4-.1-6.2-2.3-7.2-5.5.5.1 1 .1 1.4.1.7 0 1.7-.1 2.4-.3-3.3-.6-5.6-3.8-5.6-7.6v-.1c1 .6 1.9.9 3.1 1-2.1-1.4-3.6-3.8-3.6-6.6 0-1.4.3-2.8 1-4 3.8 4.8 9.4 7.9 15.8 8.2-.1-.6-.2-1.2-.2-1.8 0-4.3 3.4-7.9 7.7-7.9 2.2 0 4.2 1 5.6 2.5 1.8-.4 3.4-1 4.9-1.9-.6 1.8-1.8 3.4-3.4 4.4 1.6-.2 3-.6 4.4-1.2-1.1 1.6-2.4 3-3.9 4.1z" id="Twitter_5_"/></svg>