<svg id="Layer_1" xmlns="http://www.w3.org/2000/svg" viewBox="0 0 75.9 75.9"><style>.st0{fill:#fff}</style><path id="XMLID_72_" class="st0" d="M37.6 43.5l.1.1L54.3 25h-33l16.2 18.6s0-.1.1-.1z"/><path id="XMLID_71_" class="st0" d="M39.8 45.7c-.7.7-1.5 1.1-2.2 1.1-.8 0-1.5-.4-2.2-1.1L32 41.6 21.9 51h32.3L43.7 41l-3.9 4.7z"/><path id="XMLID_70_" class="st0" d="M20 26.8v22.8l10.8-10.2z"/><path class="st0" d="M38 0C17 0 0 17 0 38s17 38 38 38 38-17 38-38C75.9 17 58.9 0 38 0zm23 50.8c0 2.1-2.8 4.2-4.7 4.2H19.7c-1.9 0-2.7-2.1-2.7-4.2V25.2c0-2.1.8-4.2 2.7-4.2h36.6c1.9 0 4.7 2.1 4.7 4.2v25.6z"/><path id="XMLID_68_" class="st0" d="M58 49.5V26.4L47 38.9z"/></svg>